<svg height="90" viewBox="0 0 90 90" width="90" xmlns="http://www.w3.org/2000/svg"><g fill="none" fill-rule="evenodd"><circle cx="45" cy="45" fill="#ffdcdd" r="45"/><path d="m47 20h-4.1c-1 0-1.8-.6-2.2-1.5s-.2-1.9.5-2.6l2.9-2.9c.2-.2.3-.4.3-.7s-.1-.5-.3-.7l-5.7-5.7c-.4-.4-1-.4-1.4 0l-2.9 2.9c-.7.7-1.6.9-2.6.5-.9-.4-1.5-1.2-1.5-2.2v-4.1c0-.6-.4-1-1-1h-8c-.6 0-1 .4-1 1v4.1c0 1-.6 1.8-1.5 2.2s-1.9.2-2.6-.5l-2.9-2.9c-.4-.4-1-.4-1.4 0l-5.7 5.7c-.2.2-.3.4-.3.7s.1.5.3.7l2.9 2.9c.7.7.9 1.7.5 2.6s-1.2 1.5-2.2 1.5h-4.1c-.6 0-1 .4-1 1v8c0 .6.4 1 1 1h4.1c1 0 1.8.6 2.2 1.5s.2 1.9-.5 2.6l-2.9 2.9c-.2.2-.3.4-.3.7s.1.5.3.7l5.7 5.7c.4.4 1 .4 1.4 0l2.9-2.9c.7-.7 1.6-.9 2.6-.5.9.4 1.5 1.2 1.5 2.2v4.1c0 .6.4 1 1 1h8c.6 0 1-.4 1-1v-4.1c0-1 .6-1.8 1.5-2.2s1.9-.2 2.6.5l2.9 2.9c.4.4 1 .4 1.4 0l5.7-5.7c.2-.2.3-.4.3-.7s-.1-.5-.3-.7l-2.9-2.9c-.7-.7-.9-1.7-.5-2.6s1.2-1.5 2.2-1.5h4.1c.6 0 1-.4 1-1v-8c0-.6-.4-1-1-1zm-22 12c-3.9 0-7-3.1-7-7s3.1-7 7-7 7 3.1 7 7-3.1 7-7 7z" fill="#ff7576" fill-rule="nonzero" transform="translate(20 20)"/></g></svg>