<svg xmlns="http://www.w3.org/2000/svg" width="90" height="90" viewBox="0 0 90 90"><g fill="none" fill-rule="evenodd"><circle cx="45" cy="45" r="45" fill="#FFDCDD"/><g fill="#FF7576" fill-rule="nonzero"><path d="M41.443 49h3.151a17.093 17.093 0 0 0 9.278 7.194C50.905 52.911 49 47.024 49 40c0-7.024 1.905-12.911 4.872-16.194A17.093 17.093 0 0 0 44.594 31H27c-2.851 0-5 3.869-5 9s2.149 9 5 9h2.852l9.414 16.056a5.004 5.004 0 0 0 6.843 1.783 5.005 5.005 0 0 0 1.783-6.842L41.443 49z"/><path d="M59.5 23c-3.297 0-6.149 3.761-7.559 9.247C55.42 33.116 58 36.253 58 40s-2.58 6.884-6.059 7.753C53.351 53.239 56.203 57 59.5 57c4.694 0 8.5-7.611 8.5-17s-3.806-17-8.5-17z"/></g></g></svg>