<svg xmlns="http://www.w3.org/2000/svg" width="90" height="90" viewBox="0 0 90 90"><g fill="none" fill-rule="evenodd"><circle cx="45" cy="45" r="45" fill="#FFDCDD"/><path fill="#FF7576" fill-rule="nonzero" d="M63.472 22.118a1 1 0 0 0-1.026.05L57 25.798l-5.446-3.63a1 1 0 0 0-1.109 0L45 25.798l-5.446-3.63a1 1 0 0 0-1.11 0L33 25.798l-5.446-3.63A1 1 0 0 0 26 23v43a2 2 0 0 0 2 2h34a2 2 0 0 0 2-2V23a1 1 0 0 0-.528-.882zM45 58H34a1 1 0 1 1 0-2h11a1 1 0 1 1 0 2zm0-8H34a1 1 0 1 1 0-2h11a1 1 0 1 1 0 2zm0-8H34a1 1 0 1 1 0-2h11a1 1 0 1 1 0 2zm11 16h-3a1 1 0 1 1 0-2h3a1 1 0 1 1 0 2zm0-8h-3a1 1 0 1 1 0-2h3a1 1 0 1 1 0 2zm0-8h-3a1 1 0 1 1 0-2h3a1 1 0 1 1 0 2z"/></g></svg>