<svg xmlns="http://www.w3.org/2000/svg" width="70" height="70" viewBox="0 0 70 70"><g fill="none" fill-rule="evenodd"><circle cx="35" cy="35" r="35" fill="#FFDCDD"/><path d="M17 27.273v23.182c0 .853.7 1.545 1.565 1.545h32.87C52.3 52 53 51.308 53 50.455V27.273H17zM28.51 39.41l-3.913 3.864a.786.786 0 0 1-1.107 0 .765.765 0 0 1 0-1.093l3.36-3.317-3.36-3.318a.765.765 0 0 1 0-1.092.789.789 0 0 1 1.107 0l3.913 3.863a.765.765 0 0 1 0 1.093zm10.403 4.09h-7.826a.778.778 0 0 1-.783-.773c0-.426.351-.772.783-.772h7.826c.432 0 .783.346.783.772 0 .427-.351.773-.783.773zM51.435 18h-32.87C17.7 18 17 18.692 17 19.545v6.182h36v-6.182c0-.853-.7-1.545-1.565-1.545zm-30.522 5.41a1.555 1.555 0 0 1-1.565-1.546c0-.854.7-1.546 1.565-1.546s1.565.692 1.565 1.546c0 .854-.7 1.545-1.565 1.545zm5.478 0a1.555 1.555 0 0 1-1.565-1.546c0-.854.7-1.546 1.565-1.546s1.566.692 1.566 1.546c0 .854-.7 1.545-1.566 1.545zm5.479 0a1.555 1.555 0 0 1-1.566-1.546c0-.854.7-1.546 1.566-1.546.864 0 1.565.692 1.565 1.546 0 .854-.7 1.545-1.565 1.545z" fill="#FF7576" fill-rule="nonzero"/></g></svg>