<svg xmlns="http://www.w3.org/2000/svg" width="90" height="90" viewBox="0 0 90 90"><g fill="none" fill-rule="evenodd"><circle cx="45" cy="45" r="45" fill="#FFDCDD"/><path fill="#FF7576" fill-rule="nonzero" d="M49 23a1 1 0 0 1 1 1v8a1 1 0 0 1-1 1h-8a1 1 0 0 1-1-1v-8a1 1 0 0 1 1-1h8zM32 40a1 1 0 0 1 1 1v8a1 1 0 0 1-1 1h-8a1 1 0 0 1-1-1v-8a1 1 0 0 1 1-1h8zm34 0a1 1 0 0 1 1 1v8a1 1 0 0 1-1 1h-8a1 1 0 0 1-1-1v-8a1 1 0 0 1 1-1h8zM49 57a1 1 0 0 1 1 1v8a1 1 0 0 1-1 1h-8a1 1 0 0 1-1-1v-8a1 1 0 0 1 1-1h8zM30.635 38h-2.218A18.107 18.107 0 0 1 38 28.417v2.218A16.078 16.078 0 0 0 30.635 38zM52 30.635v-2.218A18.107 18.107 0 0 1 61.583 38h-2.218A16.078 16.078 0 0 0 52 30.635zM59.365 52h2.218A18.107 18.107 0 0 1 52 61.583v-2.218A16.078 16.078 0 0 0 59.365 52zM38 59.365v2.218A18.107 18.107 0 0 1 28.417 52h2.218A16.078 16.078 0 0 0 38 59.365z"/></g></svg>