<svg xmlns="http://www.w3.org/2000/svg" width="70" height="70" viewBox="0 0 70 70"><g fill="none" fill-rule="evenodd"><circle cx="35" cy="35" r="35" fill="#FFDCDD"/><g fill="#FF7576" fill-rule="nonzero"><path d="M51.234 43.5l-7.765-7.764c-.37-.031-.736-.078-1.1-.15l-6.637 7.969 7.723 7.723a5.5 5.5 0 0 0 7.779-7.778zm-4.018 3.716a.776.776 0 0 1-1.1 0l-3.888-3.888a.777.777 0 1 1 1.1-1.1l3.888 3.889a.777.777 0 0 1 0 1.1zM20.967 25.367a.78.78 0 0 0 .534.228l1.935.041 6.077 6.077 2.4-2-6.277-6.276-.041-1.935a.774.774 0 0 0-.228-.534l-3.628-3.63a.777.777 0 0 0-1.1 0l-3.3 3.301a.777.777 0 0 0 0 1.1l3.628 3.628z"/><path d="M47.444 27.222l-4.666-4.667 4.802-4.802A8.556 8.556 0 0 0 36.16 28.2L19.288 42.255a6.007 6.007 0 1 0 8.457 8.457L41.8 33.84a8.556 8.556 0 0 0 10.447-11.42l-4.803 4.802zm-23.333 21a2.333 2.333 0 1 1 0-4.666 2.333 2.333 0 0 1 0 4.666z"/></g></g></svg>