<svg xmlns="http://www.w3.org/2000/svg" width="90" height="90" viewBox="0 0 90 90"><g fill="none" fill-rule="evenodd"><circle cx="45" cy="45" r="45" fill="#FFDCDD"/><g fill="#FF7576" fill-rule="nonzero" transform="translate(20 20)"><path d="M18.408 40.973C14 39.67 9.849 39.697 5.582 40.961A4.968 4.968 0 0 0 2 45.758V47a1 1 0 0 0 1 1h18a1 1 0 0 0 1-1v-1.228a4.973 4.973 0 0 0-3.592-4.799z"/><circle cx="12" cy="32" r="6"/><path d="M44.408 40.973c-4.409-1.303-8.56-1.276-12.826-.012A4.968 4.968 0 0 0 28 45.758V47a1 1 0 0 0 1 1h18a1 1 0 0 0 1-1v-1.228a4.973 4.973 0 0 0-3.592-4.799z"/><circle cx="38" cy="32" r="6"/><path d="M16 24h18a1 1 0 0 0 1-1v-1.228a4.975 4.975 0 0 0-3.592-4.8c-4.408-1.303-8.56-1.276-12.826-.012A4.97 4.97 0 0 0 15 21.758V23a1 1 0 0 0 1 1z"/><circle cx="25" cy="8" r="6"/></g></g></svg>