<svg xmlns="http://www.w3.org/2000/svg" width="90" height="90" viewBox="0 0 90 90"><g fill="none" fill-rule="evenodd"><circle cx="45" cy="45" r="45" fill="#FFDCDD"/><path fill="#FF7576" fill-rule="nonzero" d="M58 64c4.421 0 7.943-.917 10-2.458V64c0 2.28-4.299 4-10 4s-10-1.72-10-4v-2.458C50.057 63.083 53.579 64 58 64zm0-6c4.421 0 7.943-.917 10-2.458V58c0 2.28-4.299 4-10 4s-10-1.72-10-4v-2.458C50.057 57.083 53.579 58 58 58zm0-6c4.421 0 7.943-.917 10-2.458V52c0 2.28-4.299 4-10 4s-10-1.72-10-4v-2.458C50.057 51.083 53.579 52 58 52zm0-10c5.701 0 10 1.72 10 4 0 2.28-4.299 4-10 4s-10-1.72-10-4c0-2.28 4.299-4 10-4zm-12 4v6H23a1 1 0 0 1-1-1V23a1 1 0 0 1 1-1h40a1 1 0 0 1 1 1v17.679C62.284 40.24 60.26 40 58 40c-7.178 0-12 2.411-12 6zm-7-9a4 4 0 1 0 8 0 4 4 0 0 0-8 0z"/></g></svg>