<svg xmlns="http://www.w3.org/2000/svg" width="70" height="70" viewBox="0 0 70 70"><g fill="none" fill-rule="evenodd"><circle cx="35" cy="35" r="35" fill="#FFDCDD"/><path d="M27.52 17.17a.78.78 0 0 0-.848.169l-4.117 4.117-4.116-4.117a.777.777 0 1 0-1.1 1.1l4.117 4.116-4.117 4.117a.778.778 0 0 0 .55 1.328h9.333c.43 0 .778-.349.778-.778V17.89a.778.778 0 0 0-.48-.719zm14.96 0a.78.78 0 0 1 .848.169l4.116 4.117 4.117-4.117a.777.777 0 1 1 1.1 1.1l-4.117 4.116 4.117 4.117A.778.778 0 0 1 52.11 28h-9.333a.778.778 0 0 1-.778-.778V17.89c0-.314.189-.598.48-.719zM27.52 52.83a.78.78 0 0 1-.848-.17l-4.117-4.116-4.116 4.117a.777.777 0 1 1-1.1-1.1l4.117-4.117-4.117-4.116a.778.778 0 0 1 .55-1.328h9.333c.43 0 .778.348.778.778v9.333a.778.778 0 0 1-.48.719zm14.96 0a.78.78 0 0 0 .848-.17l4.116-4.116 4.117 4.117a.777.777 0 1 0 1.1-1.1l-4.117-4.117 4.117-4.116A.778.778 0 0 0 52.11 42h-9.333a.778.778 0 0 0-.778.778v9.333c0 .314.189.598.48.719zM35 42c-3.86 0-7-3.14-7-7s3.14-7 7-7 7 3.14 7 7-3.14 7-7 7z" fill="#FF7576" fill-rule="nonzero"/></g></svg>