<svg width="350" height="312" viewBox="0 0 350 312" xmlns="http://www.w3.org/2000/svg"><title>bring your data illustration</title><g stroke-width="7" fill="none" fill-rule="evenodd"><g stroke="#FF7576"><rect x="3.5" y="3.5" width="343" height="243" rx="5"/><path d="M4.5 203.5h340" stroke-linecap="square"/><circle cx="175" cy="225" r="6.5"/><path d="M74 308h202.09M133 258v47.01M216 258v47.01" stroke-linecap="square"/></g><g transform="translate(115 51)" stroke="#FFF"><path d="M60 108V44"/><path stroke-linecap="square" d="M40 64L60 44 80 64"/><path d="M76 80h24c11.2-1 20-10.6 20-22 0-11.6-8.8-21-20.2-22-2-20.2-19-36-39.8-36-18 0-33.2 12-38.2 28.4C9.4 30.4 0 41 0 54c0 13.6 10.6 25 24 26h20" stroke-linecap="square"/></g></g></svg>