<svg width="717" height="387" viewBox="0 0 717 387" xmlns="http://www.w3.org/2000/svg"><title>build models equations</title><g fill="#FFF"><path d="M147.797 142H148V144.518c-.877 1.061-1.817 2.075-2.722 3.116l2.715-.862-.084 1.435c-1.29 0-2.588 0-3.886.007.877-1.159 1.894-2.27 2.588-3.538.505-1.304-.322-1.724-1.171-2.517-.169.813-.337 1.627-.512 2.441-.337-.324-.674-.641-1.01-.966.42-.544.848-1.09 1.276-1.634h2.603zm-59.467 0h1.838l1.185 1.034c-.154 2.076-1.662 3.07-2.855 4.621l2.8-.91-.218 1.462c-1.291 0-2.582 0-3.88.007.878-1.159 1.902-2.27 2.596-3.538.498-1.242-.309-1.607-.975-2.504-.701 1.683.014 2.042-1.859 1.966.45-.717.905-1.428 1.368-2.138zm-62.377 3.359l.701.007v12.496h-.701V145.36zm3.507 0l.701.007v12.503l-.701-.007V145.36zm46.995 0l.701.007v12.496h-.701V145.36zm3.507 0l.702.007v12.496h-.702V145.36zm37.175 0l.702.007v12.496h-.702V145.36zm3.508 0l.701.007v12.496h-.701V145.36zm12.625 0l.702.007v12.496h-.702V145.36zm3.507 0l.702.007v12.496h-.702V145.36zm-123.233.662c1.242-.759 2.154 1.082.604 1.338-.821-.214-1.017-.656-.604-1.338zm20.636.062c.94.014 1.873.027 2.813.034a87 87 0 0 0 .512 3.297c1.01-1 1.943-1.938 2.476-3.27.89-.013 1.782-.02 2.665-.034-1.816.993-3.338 2.221-4.825 3.642.827 1.682 1.669 3.303 2.946 4.71l-2.932-.041c-.169-1.29-.442-2.552-.765-3.807-1.136 1.158-2.21 2.303-2.869 3.8-.897 0-1.788.007-2.686.014 2.006-1.035 3.802-2.221 5.001-4.159-.154-1.655-1.319-2.959-2.336-4.186zm65.485.441c.21 1.476.302 2.959.372 4.442h3.738v.69h-3.633c-.182 1.323-.372 2.64-.737 3.923a61.513 61.513 0 0 1-.42-3.924h-3.592v-.69h3.557c.112-1.51.196-3 .715-4.44zM.961 149.076l.561-.014c2.511.062 5.022-.034 7.533-.048l.821.607c-.154 1.482-.631 2.951-.975 4.393a98.338 98.338 0 0 1 2.09-1.724 16.227 16.227 0 0 1-1.346 1.862 8 8 0 0 1-2.028-.028 44.05 44.05 0 0 0 1.053-5.02c-3.353.965-2.09 3.834-4.342 5.855.238-1.91.617-3.8.884-5.704-.66.242-1.305.51-1.943.807-.905 1.704-.954 3.49-2.434 4.897.203-1.573.47-3.118.575-4.697-.47.214-.947.441-1.41.669v-.11l.96-1.745zm13.264-.62c-.035 1.916-.561 3.71-1.073 5.544.673-.58 1.346-1.152 2.034-1.717-1.193 1.786-1.087 2.324-3.451 1.78.596-1.615 1.213-3.222 1.795-4.835-.862.6-1.725 1.2-2.616 1.765.99-1.248 1.845-1.862 3.31-2.538zm2.567.227l1.985.786c-.736 1.993-.968 3.903-2.44 5.49.167-1.745.413-3.462.364-5.214l-1.431 1.386c.505-.82 1.01-1.634 1.522-2.448zm1.789.13c1.2.173 2.265-.061 3.247.718-.147 1.497-.61 2.993-.96 4.483a98.78 98.78 0 0 1 2.033-1.738 13.292 13.292 0 0 1-1.332 1.883 7.326 7.326 0 0 1-2.048-.056c.413-1.434.82-2.869 1.192-4.317-.715-.317-1.424-.641-2.132-.972zm27.895-.365c-.07 1.614-.393 3.18-.638 4.773.484.324.982.641 1.487.938.379-1.759.793-3.504 1.192-5.262l1.067-.035c-.358 1.655-.667 3.304-.765 4.993l1.592-.207c1.158-1.33.66-3.724.982-5.358 1.424 1.669.435 4.586-1.017 5.876-1.648.13-4.11.579-5.534-.366-.112-1.58.365-2.993.82-4.476-.75.435-1.507.862-2.265 1.276.905-.945 1.922-1.552 3.08-2.152zm24.536-.02c-.014 1.917-.463 3.758-.87 5.627l1.578-.414c1.045-1.924.87-3.862 2.7-5.303-.673 3.317-.883 6.483-3.345 9.055-.736-.159-1.48-.317-2.216-.469a75.363 75.363 0 0 0-.232-1.814l1.15-.048a21.292 21.292 0 0 1-.147 1.641c1.031-.455 1.712-1.227 2.476-2.006-.947-.173-1.894-.338-2.84-.51a22.79 22.79 0 0 1 .925-4.897 60.234 60.234 0 0 1-2.476 1.703c.975-1.145 1.964-1.855 3.297-2.565zm41.138.324c.52.745 1.017 1.496 1.508 2.262.526-.586 1.053-1.166 1.593-1.745-.604 1.29-1.256 2.559-1.894 3.828.414.42.827.84 1.241 1.255-1.908-.207-3.808-.104-5.723-.138-1.536-.47-1.172-2.586-.625-3.662.835-1.58 2.343-1.483 3.9-1.8zm13.587-.304c-.07 1.614-.393 3.18-.638 4.773.49.324.982.641 1.487.945.378-1.766.792-3.51 1.192-5.27l1.066-.034c-.358 1.655-.666 3.304-.764 4.986l1.592-.2c1.157-1.33.66-3.724.982-5.358 1.43 1.669.435 4.586-1.017 5.876-1.656.13-4.11.579-5.534-.366-.113-1.58.364-2.993.82-4.476-.75.435-1.508.862-2.265 1.276.904-.945 1.922-1.552 3.079-2.152zm-40.318.924c.4.849.765 1.704 1.115 2.566-1.017 1.083-2.034 2.165-3.023 3.262l2.883-.841-.231 1.434c-1.291 0-2.582.007-3.872.007.884-1.159 1.9-2.269 2.602-3.545.435-1.269-.217-1.676-1.122-2.42-.239.848-.484 1.69-.737 2.537a64.941 64.941 0 0 1-.743-1.386c.96-1.283 1.585-1.358 3.128-1.614zm26.787.021c-2.28-.027-2.924 1.097-3.38 3.09-.8 1.917 2.16 1.269 3.184 1.007.26-1.331.217-2.752.196-4.097zm30.028-.02c.4.848.765 1.703 1.116 2.565-1.017 1.083-2.035 2.165-3.024 3.269l2.883-.848-.231 1.434c-1.29 0-2.574 0-3.865.007.877-1.159 1.894-2.276 2.595-3.538.428-1.276-.217-1.676-1.122-2.428-.239.849-.484 1.69-.73 2.538a66.7 66.7 0 0 1-.75-1.379c.96-1.29 1.585-1.365 3.128-1.62zm-86.225 1.793c2.763-.4 5.639-.166 8.424-.194v.676c-2.708-.145-5.885.51-8.424-.482zm-44.821 6.31c.014 1.345.049 2.676.224 4.014.716-1.138 1.052-2.366 1.445-3.628l.54-.014c-.049 1.118-.105 2.235-.112 3.359l1.262.793h-3.906c-.281-.352-.555-.697-.828-1.055.294-.82.596-1.648.884-2.476l-2.055.765c.834-.6 1.683-1.186 2.546-1.758zm4.103.317c.442.931.337 2.014-.35 2.8-.38-.793-.73-2.4.35-2.8z"/><path d="M472.236 0h3.695l-.126.007c-.12 1.13-.246 2.252-.393 3.381l1.816-.162c-.849.395-1.697.783-2.566 1.122-.063-1.348.091-2.654.161-4.037-.42.282-.841.571-1.269.854-.434 1.277-.925 2.513-1.654 3.663.126-1.228.33-2.435.519-3.65L472.25.05 472.236 0zm-64.581 3.381c.154 2.548.105 5.132.07 7.687l1.935.932c-1.613.007-3.225.007-4.83-.007.63-.318 1.275-.628 1.913-.939V4.73c-.7.05-1.395.1-2.096.142.42-.212.849-.431 1.27-.643.574-.29 1.156-.572 1.738-.847zm57.634 5.097c5.286.028 10.579-.092 15.858.028.722 1.108 1.17 2.435 1.675 3.65-1.647-1.349-3.148-2.598-5.349-2.86-3.07-.247-6.19-.063-9.268-.12 1.907 2.817 3.954 5.556 5.96 8.316-2.188 2.654-4.509 5.188-6.605 7.92 3.75-.106 7.915.346 11.54-.65 1.388-.324 2.58-1.61 3.687-2.463a89.784 89.784 0 0 1-1.647 4.405c-5.265-.064-10.537.063-15.795-.085 2.117-2.852 4.57-5.443 6.828-8.195-2.096-3.48-4.753-6.495-6.884-9.946zm-43.683.698h5.447c.05.742.098 1.483.154 2.224-.659-.833-1.128-1.539-2.201-1.87-.638 1.7-.996 3.522-1.472 5.28.462.24.918.48 1.374.72-1.255.006-2.51 0-3.765 0 .533-.325 1.066-.643 1.599-.96.322-1.765.694-3.516.939-5.295a43.06 43.06 0 0 0-3.155 2.104c.365-.734.722-1.468 1.08-2.203zm145.82 0h5.447c.05.742.098 1.483.154 2.224-.666-.826-1.128-1.553-2.2-1.864-.639 1.702-.996 3.523-1.473 5.273.463.24.918.48 1.38.72-1.261.007-2.516 0-3.77 0 .532-.324 1.065-.642 1.598-.96.322-1.764.694-3.515.94-5.294a43.06 43.06 0 0 0-3.156 2.104c.365-.734.722-1.468 1.08-2.203zm-61.868.968c-3.92 3.529-3.99 10.108-.007 13.623-.989-2.315-2.265-4.179-2.076-6.826-.196-2.654 1.136-4.461 2.083-6.797zm23.836 0c-3.92 3.529-3.99 10.108-.007 13.623-.989-2.315-2.265-4.179-2.076-6.826-.196-2.654 1.136-4.461 2.083-6.797zm24.537 0c-3.92 3.529-3.99 10.108-.007 13.623-.989-2.315-2.265-4.179-2.076-6.826-.196-2.654 1.136-4.461 2.083-6.797zm50.518.014c.932 2.33 2.271 4.157 2.11 6.783.147 2.612-1.157 4.49-2.082 6.819 3.884-3.607 3.989-10.052-.028-13.602zm4.907 0c.933 2.33 2.272 4.157 2.11 6.783.148 2.612-1.156 4.49-2.082 6.819 3.884-3.607 3.99-10.052-.028-13.602zm26.64 0c.933 2.33 2.272 4.157 2.11 6.783.148 2.612-1.156 4.49-2.082 6.819 3.884-3.607 3.99-10.052-.028-13.602zM487.52 11.816c.014 2.563.014 5.118-.028 7.68l1.325.911c-1.051.057-2.103.12-3.154.19 1.675-1.849.813-5.18.946-7.538a89.83 89.83 0 0 0-1.178-1.08c.694-.05 1.395-.106 2.09-.163zm-95.932.043c1.254-.77 2.117 1.122.574 1.376-.799-.219-.988-.677-.574-1.376zm69.215.748c.428-.247.848-.494 1.276-.741a118.659 118.659 0 0 0-.94 3.854c-.364-1.03-.736-2.068-1.107-3.099-1.045.085-2.166.064-3.183.346-1.83 1.101-2.923 3.226-2.552 5.365.358 1.164.989 1.68 2.223 1.553 1.9.155 3.014-1.73 4.374-2.796-.645.925-1.29 2.055-2.222 2.718-1.129.53-2.475.642-3.688.91-.673-.853-2.166-1.842-2.012-3.035-.322-2.378 1.283-4.256 3.288-5.223 1.353-.84 3.113-.148 4.543.148zm96.55-.67c.883.02 1.773.042 2.657.056.168 1.143.357 2.287.568 3.423 1.03-1.051 2.012-1.997 2.53-3.409.87-.007 1.767-.028 2.636-.042-1.864.96-3.337 2.188-4.802 3.684.582 1.257 1.143 2.52 1.697 3.791.497.332.988.67 1.479 1.01-1.066.028-2.138.049-3.21.07-.015-1.39-.337-2.654-.765-3.967-1.157 1.207-2.264 2.372-2.895 3.953-.919-.021-1.83-.057-2.749-.099a79.565 79.565 0 0 1 2.139-.861c1.1-1.101 2.173-2.217 3.253-3.339-.68-1.56-1.424-2.979-2.538-4.27zm75.342-.085c.155 2.548.106 5.139.07 7.687.646.31 1.29.621 1.935.932-1.612.007-3.224.007-4.83-.007.638-.318 1.276-.629 1.914-.94V13.2c-.701.05-1.395.092-2.09.134.415-.212.828-.416 1.242-.628.582-.29 1.17-.572 1.76-.854zm-187.392.572c.224 1.503.315 3.007.392 4.517 1.248.014 2.496.021 3.744.035l-.014.636c-1.22.014-2.44.02-3.66.035-.161 1.341-.308 2.675-.603 3.988a69.223 69.223 0 0 1-.413-3.988 622.82 622.82 0 0 0-3.632-.028l.007-.65 3.604-.02c.119-1.525.224-3.036.575-4.525zm145.119 0c.224 1.503.315 3.007.392 4.517 1.248.014 2.496.021 3.744.035l-.007.636c-1.22.014-2.44.02-3.667.035-.16 1.341-.308 2.675-.603 3.988a69.223 69.223 0 0 1-.413-3.988 622.82 622.82 0 0 0-3.632-.028l.007-.65 3.604-.02c.119-1.525.217-3.036.575-4.525zm30.846 0c.225 1.503.316 3.007.393 4.517 1.248.014 2.496.021 3.743.035l-.007.636c-1.22.014-2.44.02-3.666.035-.161 1.341-.309 2.675-.603 3.988a69.223 69.223 0 0 1-.414-3.988 622.82 622.82 0 0 0-3.631-.028l.007-.65 3.603-.02c.12-1.525.218-3.036.575-4.525zM378.996 15.07l.54-.007c2.51.056 5.005-.008 7.515-.12 1.668.698-.183 3.804-.204 5.124.715-.579 1.43-1.15 2.153-1.722-1.157 1.708-1.164 2.012-3.288 1.863.392-1.715.764-3.437 1.03-5.18-.687.303-1.36.627-2.012.973-.862 1.716-1.03 3.523-2.334 5.02.203-1.942.596-3.84.883-5.768-.694.205-1.388.438-2.068.692-.82 1.743-1.003 3.55-2.279 5.075.155-1.616.414-3.205.54-4.814-.505.17-.995.374-1.472.607v-.05l.996-1.693zm13.214-.692c-.049 1.97-.616 3.805-1.135 5.69.708-.587 1.416-1.158 2.124-1.737-.42.656-.876 1.27-1.374 1.85-.673.034-1.346.027-2.02-.008.569-1.701 1.179-3.388 1.76-5.09-.89.643-1.773 1.285-2.692 1.885 1.01-1.185 1.942-1.891 3.337-2.59zm4.403.692c1.276.035 2.279-.72 3.155.508-.154 1.517-.638 3.014-.975 4.49.701-.587 1.41-1.165 2.125-1.737-1.164 1.722-1.136 2.033-3.288 1.877.427-1.694.827-3.395 1.142-5.117-.722.26-1.437.55-2.13.868-.891 1.779-.92 3.593-2.405 5.047.252-1.976.757-3.896 1.247-5.823-.799.614-1.591 1.228-2.39 1.835 1.276-1.581 1.318-2.23 3.52-1.948zm18.01-.685c-.07 1.652-.427 3.254-.7 4.885.504.345 1.023.663 1.556.967.54-2.167.63-4.229 2.089-6.007-.14 1.884-.505 3.74-.638 5.625l1.647-.14c1.213-1.349.736-3.812 1.03-5.5 1.284 1.737.323 4.624-1.072 5.972-1.724.113-3.96.473-5.552-.324-.056-1.673.463-3.184.904-4.765-.841.65-1.69 1.285-2.566 1.892.996-1.222 1.893-1.906 3.302-2.605zm16.125 0c-.07 1.659-.428 3.254-.701 4.885.504.345 1.023.663 1.556.967.54-2.167.63-4.229 2.09-6.007-.141 1.884-.506 3.74-.639 5.625l1.648-.14c1.212-1.349.736-3.812 1.03-5.5 1.283 1.737.323 4.617-1.072 5.972-1.725.113-3.961.473-5.553-.324-.056-1.673.463-3.184.905-4.765-.842.65-1.69 1.285-2.566 1.892.995-1.222 1.892-1.906 3.302-2.605zm59.709.77c.932-.283 1.984-.318 2.916-.022 1.732 1.179 1.78 3.854.021 5.026-.673.642-2.103.127-2.944.021-1.851-1.087-1.76-3.917.007-5.026zm11.455.211c-.575.085-1.143.17-1.718.254a25.636 25.636 0 0 1-.588 1.75c-.702.742-2.18.784-3.12 1.208.995 2.273 4.402-.057 4.676 3.028-1.248 1.25-3.505.932-5.076.635-1.36-.614-.245-1.22 0-2.23-.07-1.42-.245-2.845-.238-4.264 1.227-1.46 4.353-.557 6.064-.38zm8.44-.501c.68.776 1.122 1.638 1.641 2.527-1.535.021-3.07.007-4.606.021.372.826.785 1.63 1.234 2.421 1.255.141 2.363-.628 3.526-1.08-1.303 1.094-2.32 2.033-4.164 1.469-1.795-1.193-1.304-2.895-1.037-4.702 1.107-.374 2.229-.642 3.407-.656zm1.459-.106c.855.028 1.71.05 2.566.07.294.735.603 1.462.918 2.189.35-.741.68-1.49.989-2.245 1.542.028 3.084.07 4.613.275.827-.098 1.647-.197 2.467-.303.491.783 1.206 1.616 1.382 2.534.14 1.292-.807 2.252-1.445 3.261-1.072-.17-2.152-.332-3.232-.473.386.876.793 1.744 1.22 2.598l-2.776-.085 1.402-1.793a49.298 49.298 0 0 0-3.666-.395 23.32 23.32 0 0 0-1.36-2.322c-.344.79-.673 1.595-.975 2.4l-2.096.007a57.145 57.145 0 0 0 3.148-2.69c-1.003-1.073-2.033-2.09-3.155-3.028zm31.106-.402c-.05 1.694-.484 3.331-.673 5.004l1.276 1.172c.862-2.181 1.016-4.708 2.755-6.282-.449 2.583-.897 5.364-2.054 7.73-.512 1.157-2.286 1.157-3.344 1.503-.098-.77-.19-1.54-.288-2.309l1.122-.02-.505 2.131c1.03-.77 1.97-1.588 2.882-2.499-.975-.24-1.95-.473-2.924-.699.19-1.687.533-3.289.989-4.92a52.211 52.211 0 0 1-2.56 1.793c.99-1.094 2.041-1.87 3.324-2.604zm33.65.028c-.07 1.652-.427 3.254-.7 4.885.504.345 1.023.663 1.556.967.54-2.167.631-4.229 2.09-6.007-.141 1.884-.506 3.74-.639 5.625l1.648-.14c1.213-1.349.736-3.812 1.03-5.5 1.276 1.744.323 4.617-1.072 5.972-1.725.113-3.961.473-5.553-.324-.056-1.673.463-3.184.905-4.765-.842.65-1.69 1.285-2.566 1.892.995-1.222 1.893-1.906 3.302-2.605zm23.92.727c1.158-.064 2.356.106 3.513.212-.343.43-.68.86-1.023 1.291-.47-.444-.947-.875-1.43-1.298-1.459 1.214-2.048 2.414-1.985 4.313 1.69.734 2.924-.325 4.522-.812-1.612 1.108-3.365 2.456-5.223.896-.638-1.764.063-3.607 1.627-4.602zm-107.654.416c-1.871-.882-3.028.989-2.622 2.704.28 1.701 1.515 1.503 2.84 1.941.301-1.786 1.227-3.085-.218-4.645zm4.466.17c-.8.833-.049 2.485 1.122 1.757.778-.868.077-2.491-1.122-1.757zm13.229.586c-.547-1.596-2.587-.953-2.685.579.736.197 2.559.543 2.685-.58zm8.034-1.306c-1.115.557-2.138 1.242-3.14 1.983a38.04 38.04 0 0 0 2.832 3.537c.476-.459.946-.918 1.423-1.384-.295-1.58.252-3.063-1.115-4.136zm4.192.275c-.904.254-1.745.205-2.341 1.052-.098 1.023-.07 2.09.147 3.106.743.268 1.493.508 2.258.72.322-.883.652-1.765.981-2.64-.343-.748-.687-1.497-1.045-2.238zm25.175 1.094l.505-.29.505.283-.014.572-.512.29-.498-.276.014-.579zm-143.99.593h6.31v.706h-6.31v-.706zm135.143.014l-.014.678c-2.797-.014-5.692.198-8.469-.19 2.63-.848 5.735-.438 8.483-.488zm27.776.805l.505-.29.505.283-.014.572-.512.29-.498-.276.014-.579zm-18.424.205c-.063.995-.133 1.997-.21 2.993.322.331.652.656.974.98-.82.24-1.64.474-2.46.7.315-1.229.666-2.45 1.023-3.678l-1.984.77c.87-.615 1.76-1.2 2.657-1.765zM643 20.175v.401a3.993 3.993 0 0 1-1.872-.247c-.203-1.891 1.416-1.729 1.872-.155zm-75.637-.799c-.063.996-.133 1.998-.21 2.993.322.332.651.657.974.982-.82.24-1.64.473-2.46.698.315-1.228.665-2.449 1.023-3.677l-1.984.77c.87-.615 1.76-1.2 2.657-1.766zm-66.818 2.443c-1.374-1.772-3.421-1.998-4.662.085 1.563.056 3.106.028 4.662-.085zm-95.61-.508c1.037-.071 2.068-.135 3.098-.191.505.473 1.01.953 1.515 1.433.007.72.007 1.44.014 2.16-1.283 1.398-2.594 2.774-3.835 4.207 1.402-.282 2.699-.565 3.947-1.278-.084.67-.161 1.342-.239 2.005-1.71 0-3.414.007-5.124 0 1.255-1.567 2.545-3.099 3.827-4.645l-.02-2.894a99.864 99.864 0 0 1-3.183-.797zm.175.769c.582.48.8 1.108.645 1.892-1.353.543-1.732-1.334-.645-1.892zm-19.504 1.624c.14 1.277.078 2.548.288 3.818.855-1.284 1.304-2.64 1.963-4.037a77.647 77.647 0 0 1-.196 3.826c.56.268 1.128.543 1.69.825-1.501-.02-3.001-.084-4.502-.127-.28-1.164.028-2.195.176-3.367l-1.907.727c.82-.571 1.64-1.136 2.488-1.665zm3.667.204c1.059.445.848 2.026.547 2.908-.708-.783-.975-1.927-.547-2.908zm8.055.07c-.077.516-.147 1.024-.224 1.54-.533-.29-1.08-.572-1.627-.847a36.367 36.367 0 0 0-.946 2.66c.932.255 1.865.516 2.79.784-1.002.021-2.012.036-3.014.036-.26-.495-.512-.996-.772-1.497.246-.67.498-1.341.758-2.005 1.002-.296 2.019-.473 3.035-.67zm-5.924 3.177c.449-.106.919-.007 1.41.304.273 1.2-.316 2.054-1.045 2.922-.077-.473-.154-.946-.225-1.412-.238-.691-.28-1.298-.14-1.814zm76.605 1.9l.505-.29.504.282-.014.572-.511.29-.498-.276.014-.579zm10.95-.24c-.007 1.926-.007 3.853-.007 5.773.442.24.89.473 1.332.706h-3.519c.449-.303.897-.607 1.346-.918a358.363 358.363 0 0 1 0-3.882c-.47-.162-.932-.325-1.395-.487a345.3 345.3 0 0 0 2.243-1.193zm-10.445 1.856c-.063.995-.134 1.997-.21 3 .322.324.651.649.974.974-.82.24-1.64.473-2.46.706.315-1.236.665-2.457 1.023-3.685l-1.984.77c.869-.615 1.76-1.2 2.657-1.765zm1.367 1.094c2.215 0 4.262-.156 6.421.459-2.152.324-4.255.232-6.428.225l.007-.684zm-.715 2.336a25.443 25.443 0 0 1 7.136.014c-2.334.664-4.809.727-7.136-.014z" opacity=".2"/><path d="M653.283 356h.503c-3.02 4.016-2.762 8.666.056 12.703-.986-.882-2.007-1.536-2.412-2.852-1.154-3.334-.881-7.295 1.853-9.851zm29.88 0h.377c1.944 1.929 2.58 3.444 2.482 6.2.091 2.962-.678 4.609-2.922 6.517 1.027-2.198 2.321-3.954 2.14-6.517.174-2.432-.98-4.168-2.078-6.2zm-203.368 1.37c.42 2.357.133 4.892.119 7.282.643.331 1.286.662 1.923.992-1.588.014-3.175-.006-4.762-.034a36.07 36.07 0 0 0 1.88-.896c-.027-2.046-.006-4.085-.006-6.124l-2.084.062c.937-.406 1.909-1.212 2.93-1.281zm178.299-.013c.44 2.363.14 4.905.133 7.295.643.331 1.28.662 1.923.992-1.588.014-3.175-.006-4.762-.034a36.07 36.07 0 0 0 1.88-.896c-.027-2.046-.006-4.092-.006-6.138-.693.035-1.378.062-2.07.076.93-.427 1.888-1.17 2.902-1.295zm-12.049 2.66c.476.812.951 1.632 1.427 2.445.51-.648 1.02-1.295 1.545-1.93a38.54 38.54 0 0 1-1.86 3.77c.399.481.804.97 1.21 1.453-1.958-.834-3.636-.207-5.622-.235-1.636-.702-1.189-3.024-.329-4.154.916-1.226 2.252-1.095 3.63-1.35zm35.418.144c1.713.923 1.077 3.375-.02 4.54-.812.985-2.203.71-3.357.916a38.215 38.215 0 0 1-.755 2.79l-1.056-.028c.447-1.805.874-3.616 1.356-5.414.63-1.73 1.762-3.149 3.832-2.804zm-35.439.606c-2.377-.744-3.615 2.136-3.356 4.016 1.098.524 3.63.565 3.37-1.191a25.38 25.38 0 0 0-.014-2.825zm34.376-.337c-1.72 1.322-1.965 3.044-1.93 5.09 2.161-.303 4.224-3.768 1.93-5.09zm-7.873 1.77l-.007.682c-2.756-.02-5.574.172-8.308-.172 2.476-1.047 5.65-.317 8.315-.51zm-108.47.572c.489.916 1.251 1.502.804 2.61-.686 1.137-1.749 2.074-2.63 3.073l3-.613c-.266 2.012-2.783 1.04-4.258 1.254.95-1.254 2.44-2.597 2.769-4.154.182-1.047-.37-1.57-1.644-1.57l.028 1.618c-.44.041-.88.055-1.328.048.923-1.874 1.105-2.094 3.258-2.266zm148.873.24c1.476-.068 2.05-.385 3.07.917v1.467c-.881 1.054-1.832 2.046-2.72 3.087l2.713-.772-.119 1.392c-1.287 0-2.573-.007-3.86-.021.958-1.24 2.44-2.59 2.77-4.14.188-1.082-.4-1.612-1.756-1.585.07.662.133 1.33.196 1.998l-1.217-.537c.3-.606.609-1.213.923-1.805zm-207.41 1.86h.7c0 4.162.007 8.323 0 12.484h-.7c-.006-4.161-.006-8.322 0-12.483zm3.497 0h.7c0 4.162.006 8.323 0 12.484h-.7c-.007-4.161-.007-8.322 0-12.483zm46.152 0h.699c0 4.162.007 8.323 0 12.484h-.7c-.006-4.161 0-8.322 0-12.483zm3.496 0h.7c.006 4.162.006 8.323 0 12.484h-.7c0-4.161-.007-8.322 0-12.483zm38.46 0l.699.008c.007 4.154.007 8.315 0 12.476h-.7c-.006-4.161-.006-8.322 0-12.483zm3.496 0l.7.008c.006 4.154.006 8.315 0 12.476h-.7c-.007-4.161-.007-8.322 0-12.483zm13.286 0h.7c.006 4.162.006 8.323 0 12.484h-.7c-.007-4.161 0-8.322 0-12.483zm3.496 0h.7c0 4.162.007 8.323 0 12.484h-.7c-.007-4.161-.007-8.322 0-12.483zm72.724 0l.7.008c.006 4.154.006 8.315 0 12.476h-.7c-.007-4.161-.007-8.322 0-12.483zm3.496 0l.7.008c.007 4.154.007 8.315 0 12.476h-.7c-.007-4.161 0-8.322 0-12.483zm12.587 0l.7.008c.007 4.154.007 8.315 0 12.476h-.7c0-4.161-.007-8.322 0-12.483zm3.497 0h.699c0 4.162.007 8.323 0 12.484h-.7c-.006-4.161-.006-8.322 0-12.483zm-266.17.676c1.225-.737 2.029 1.075.574 1.33-.839-.235-1.035-.682-.573-1.33zm70.06.048c1.084.014 2.161.007 3.245-.02-.518.895-.427 1.956.266 3.19 1.076-1.048 2.377-1.468 2.125-3.177 1.014.055 2.028.097 3.042.097-1.965.744-3.447 2.066-4.853 3.568.797 1.791 1.336 3.541 3.05 4.712a43.032 43.032 0 0 0-3.4.014c.623-1.44.07-2.439-.552-3.734-1.16 1.233-2.587 1.86-2.51 3.768a150.893 150.893 0 0 0-3.049-.2 21.82 21.82 0 0 0 2.042-.833c1.077-1.02 2.839-2.204 3.056-3.747-.399-1.544-1.3-2.584-2.462-3.638zm60.732.744c.056 1.371.063 2.749.063 4.12 1.265.007 2.524.007 3.79.014v.675c-1.252.007-2.504.007-3.762.013-.126 1.399.37 2.639-.763 3.672a71.283 71.283 0 0 1-.105-3.672c-1.23 0-2.461-.006-3.685-.013v-.675c1.231-.007 2.455-.014 3.678-.014.182-1.213-.517-3.445.784-4.12zm58.039 0c.056 1.371.063 2.749.063 4.12 1.265.007 2.524.007 3.79.014v.675c-1.252.007-2.504.007-3.762.013-.133 1.399.37 2.646-.763 3.672a71.285 71.285 0 0 1-.104-3.672c-1.231 0-2.462-.006-3.686-.013v-.675c1.231-.007 2.455-.014 3.679-.014.181-1.213-.518-3.445.783-4.12zm-201.277 2.205h.363c2.497.137 5.07.227 7.546-.117 1.706.771-.07 3.844-.175 5.173a16.267 16.267 0 0 1 1.979-1.812c-.811 1.874-1.161 2.501-3.259 1.557.657-1.488.916-3.01 1.14-4.608-1.063.42-2.147.468-2.483 1.729-.643 1.591-.055 2.92-1.992 3.692.391-1.77.79-3.534 1.07-5.325-1.147.29-2.224.33-2.574 1.633-.657 1.598-.035 2.962-2.028 3.685.427-1.832.91-3.65 1.35-5.476-.678.613-1.357 1.233-2.028 1.853v-.359l1.09-1.625zm12.964-.434c.217 1.963-.503 3.637-.993 5.497a13.712 13.712 0 0 1 1.93-1.826c-.762 1.826-1.251 2.653-3.272 1.502.804-1.46 1.251-3.038 1.699-4.643-.783.627-1.56 1.268-2.35 1.888.728-1.55 1.413-1.847 2.986-2.418zm2.811.4c.65.04 1.294.192 1.93.454-1.133 1.612-.671 4.609-2.727 5.187.392-1.818.902-3.61 1.392-5.408-.742.6-1.49 1.2-2.238 1.785.434-.607.888-1.764 1.643-2.019zm1.658-.049c.839-.041 1.678-.076 2.517-.117 1.315 1.233-.077 3.768-.266 5.27.58-.689 1.21-1.295 1.91-1.833-.798 1.847-1.12 2.522-3.203 1.571.51-1.378.888-2.755 1.181-4.188a18.469 18.469 0 0 0-2.14-.703zm76.618-.338c.287 1.66-.328 2.99-.601 4.582.287.454.88.668 1.762.647.308-1.667.566-3.327 1.07-4.953l1.063-.02c-.364 1.529-1.021 3.306-.72 4.863 3.006.84 2.237-3.59 2.286-5.194 1.965.964.35 4.663-.853 5.621-1.531-.041-4.3.696-5.447-.448-.161-1.632.335-3.052.818-4.58a99.465 99.465 0 0 1-2.336 1.887c.735-1.543 1.392-1.833 2.958-2.405zm25.167-.034c.363 1.75-.483 3.21-.588 4.884l1.35.8c1.112-1.806.636-4.926 2.797-5.69-.678 2.369-.895 5.159-2.119 7.308-.86 1.474-2.056 1.061-3.524 1.247-.042-.689-.07-1.37-.098-2.06l1.203-.007c-.217.586-.427 1.165-.643 1.75 1.594-.4 1.943-.964 2.713-2.294l-2.58-.33c.041-1.757.223-3.355.873-5.009a59.78 59.78 0 0 1-2.377 1.812c.706-1.35 1.63-1.825 2.993-2.411zm36.299.193c.475.813.95 1.633 1.426 2.445.51-.647 1.021-1.295 1.546-1.928a36.328 36.328 0 0 1-1.86 3.768c.398.489.804.971 1.21 1.453-1.959-.833-3.644-.206-5.623-.234-1.636-.703-1.189-3.024-.328-4.154.916-1.226 2.251-1.095 3.629-1.35zm8.146.145c1.713.923 1.077 3.375-.02 4.54-.812.984-2.203.709-3.357.916a38.216 38.216 0 0 1-.755 2.79l-1.056-.028c.447-1.805.874-3.624 1.356-5.415.63-1.736 1.762-3.148 3.832-2.803zm10.81-.304c.267 1.654-.314 2.99-.615 4.582.301.454.889.668 1.77.647.307-1.667.566-3.327 1.07-4.953l1.062-.02c-.363 1.529-1.02 3.3-.72 4.863 3.007.84 2.238-3.59 2.287-5.194 1.965.964.35 4.663-.853 5.621-1.532-.041-4.3.696-5.448-.448-.16-1.632.336-3.052.819-4.574-.777.634-1.546 1.268-2.336 1.88.734-1.542 1.391-1.832 2.965-2.404zm93.003.007c.287 1.654-.342 2.983-.615 4.575.3.454.888.668 1.77.647.307-1.667.565-3.334 1.069-4.953l1.063-.02c-.364 1.529-1.021 3.3-.72 4.863 3.006.847 2.237-3.59 2.286-5.194 1.965.964.35 4.663-.853 5.621-1.531-.041-4.3.696-5.447-.448-.161-1.632.335-3.052.818-4.574-.77.634-1.545 1.268-2.336 1.88.735-1.542 1.392-1.832 2.965-2.397zm-111.98.903c-2.378-.744-3.615 2.135-3.357 4.016 1.098.524 3.622.572 3.37-1.192.05-.937.05-1.88-.013-2.824zm7.104-.338c-1.72 1.323-1.965 3.052-1.93 5.091 2.161-.303 4.224-3.768 1.93-5.09zm28.621.93c.007 1.86-.014 3.72-.014 5.58.44.255.881.51 1.322.758-1.16.014-2.322.028-3.482.034.44-.344.88-.695 1.321-1.04.014-1.178.021-2.349.021-3.527l-1.426-.661c.755-.372 1.51-.751 2.258-1.144zm-166.44.84h47.551v.69c-15.845 0-31.698.006-47.55 0v-.69zm87.99 0l-.014.683c-2.749-.021-5.567.172-8.294-.166 2.462-1.06 5.65-.323 8.308-.516zm97.316 0c15.384-.006 30.768-.006 46.152 0v.69c-15.384.006-30.768 0-46.152 0v-.69zm-77.122.572c.49.91 1.252 1.502.805 2.611-.686 1.137-1.756 2.074-2.63 3.073l3-.613c-.266 2.011-2.783 1.047-4.258 1.253.944-1.253 2.44-2.597 2.769-4.154.189-1.067-.392-1.59-1.748-1.57.07.654.14 1.309.195 1.963l-1.293-.537c.958-1.784 1.119-1.826 3.16-2.026zm148.888.242c1.469-.083 2.035-.372 3.056.909v1.474c-.874 1.054-1.832 2.04-2.72 3.086l2.713-.771-.119 1.391c-1.287 0-2.573-.007-3.86-.02.958-1.233 2.44-2.597 2.77-4.14.181-1.061-.371-1.585-1.658-1.585-.014 1.743.517 1.695-1.23 1.708a37.89 37.89 0 0 1 1.048-2.052zm-256.036 3.423c1.02-.062 2.042-.09 3.063-.082.517.42 1.027.847 1.531 1.288 0 .716-.007 1.433-.007 2.156a150.854 150.854 0 0 1-3.72 3.885c1.727-.09 2.573.014 3.769-1.253-.035.723-.07 1.446-.098 2.17-1.72 0-3.44 0-5.154.02 1.077-1.598 2.539-2.907 3.602-4.498.258-.923.146-1.963.167-2.914-1.07-.193-2.132-.4-3.153-.772zm205.584 0a50.51 50.51 0 0 1 3.063-.09c.517.428 1.028.855 1.531 1.296 0 .716-.007 1.433-.007 2.156a150.853 150.853 0 0 1-3.72 3.885c1.727-.09 2.574.014 3.77-1.253-.036.723-.07 1.446-.099 2.17-1.72 0-3.433 0-5.153.02 1.077-1.605 2.538-2.907 3.601-4.505.259-.916.147-1.956.168-2.9-1.07-.2-2.126-.407-3.154-.779zm-205.416.786c.573.434.776 1.067.615 1.901-1.28.448-1.72-1.357-.615-1.901zm205.584 0c.573.434.776 1.067.615 1.901-1.28.44-1.72-1.357-.615-1.901zm-221.38 1.605c-.106 1.343-.197 2.686-.183 4.037 1.259-1 1.259-2.343 1.65-3.769l.679-.027c-.112 1.006-.224 2.018-.343 3.031.385.365.77.737 1.147 1.102-1.238-.062-2.503-.007-3.727-.2-1.035-.82-.126-2.39.09-3.368l-1.86.84c.777-.696 1.532-1.309 2.546-1.646zm3.887.186c.385.84.406 1.777.063 2.804-.867-.69-1.098-2.136-.063-2.804zm18.482.186c.65.041 1.293.186 1.93.454-1.133 1.612-.672 4.61-2.727 5.188.391-1.819.902-3.61 1.391-5.408-.741.6-1.49 1.199-2.238 1.791.434-.613.888-1.77 1.644-2.025zm1.657-.048c.84-.042 1.678-.076 2.517-.118 1.315 1.234-.077 3.769-.265 5.27.58-.688 1.21-1.295 1.909-1.832-.798 1.846-1.12 2.514-3.203 1.57.517-1.377.888-2.755 1.182-4.188a18.469 18.469 0 0 0-2.14-.702zm28.586 1.178c-.259 1.605-.587 3.148-1.07 4.705.343.275.685.544 1.035.82.119-.841.3-1.668.531-2.474 1.021-.985 2.07-.654 3.343-.62-.664 1.585-1.049 1.468-2.692 1.812l-.007 1.633c1.3-.234 2.587-.524 3.867-.834.615.73 1.21.91 1.79.544-.77-1.508-2.224-1.343-1.567-3.327.833.131 1.665.234 2.49.31-.147 1.116-.056 3.004-1.077 3.686-.881.007-1.797-.324-2.643-.551-1 .234-1.853.633-2.888.358-1.224-.38-2.224.351-3.42-.262.385-1.474 1.007-2.97 1.098-4.485.05-1.35-.098-1.081 1.21-1.315zm-20.342 2.507c.112 1.206-.014 2.342-.587 3.43a8.93 8.93 0 0 1-2.336.338 68.36 68.36 0 0 1-.51-1.57c.811.695 1.49 1.081 2.615.895-.573-.95-1.384-1.598-2.126-2.404.888-1.06 1.72-.73 2.944-.689zm4.825-.303c-.28.937-.566 1.874-.853 2.81.259.442.525.882.783 1.33-1.14-.09-2.28-.172-3.426-.117a84.354 84.354 0 0 0-.79-1.336c.321-.737.594-1.599 1.16-2.177 1.007-.572 2-.414 3.126-.51zm4.224.2c1.119.172 2.182-.048 3.286-.2.12 1.35.14 2.666.658 3.947-.693.014-1.378.035-2.063.062.287-1.219.531-2.452.839-3.665-2.587.627-1.364 2.777-3.168 4.113.105-1.35.301-2.687.49-4.023-2.098.42-1.462 2.77-3.098 4.085.175-1.323.462-2.625.86-3.92l-1.839.38c1.392-.752 2.434-1.055 4.035-.78zm4.28.255c1.335-.331 2.685-.345 4.055-.407.329 1.736.112 2.494-.853 3.996-.7-.02-1.406-.042-2.105-.055.07.744.168 1.48.287 2.211h-1.846c.818-1.212.944-2.322 1.02-3.754.441-.428.882-.855 1.322-1.275l-.272 2.611c1.713-.827 1.608-1.412 1.797-3.12-1.462.358-2.05.316-3.406-.207zm-10.294.385c-1.02-.723-1.678 2.467-.531 2.611.81-.447 1.063-1.873.531-2.61z" opacity=".8"/><path d="M218.945 27h1.875l1.238 1.064c-.168 2.107-1.658 3.087-2.89 4.62l2.834-.637-.28 1.26c-1.28 0-2.553 0-3.834-.014a83.272 83.272 0 0 1 2.785-3.29c-.091-1.113-.266-2.009-.833-2.996a52.81 52.81 0 0 0-1.07 2.415c-.252-.168-.504-.343-.756-.511.315-.637.623-1.274.93-1.911zm-61.256.329c-1.547 2.52-3.324 4.592-4.198 7.49-1.414 4.585-1.344 9.695-.637 14.399.644 3.794 2.673 6.678 4.835 9.737-2.75-1.526-4.247-4.256-5.332-7.098-1.525-4.151-1.364-8.645-1.063-12.992.685-4.515 2.511-8.876 6.395-11.536zm66.56.077c2.65 1.701 4.211 4.445 5.275 7.336 1.77 5.425 1.847 11.312.077 16.744-1.036 3.017-2.603 5.733-5.36 7.476 1.295-2.191 2.862-3.948 3.743-6.377 2.162-5.936 2.12-12.53.084-18.494-.881-2.534-2.553-4.389-3.82-6.685zm-51.357.56c-3.932 3.444-3.988 10.073-.007 13.503-.972-2.31-2.246-4.144-2.064-6.769-.189-2.625 1.14-4.41 2.071-6.734zm40.63.014c.91 2.31 2.253 4.144 2.092 6.72.154 2.555-1.168 4.459-2.07 6.762 3.882-3.528 3.994-10.01-.022-13.482zm-108.938 1.659c.154 2.513.112 5.075.063 7.595l1.91.966c-1.61.007-3.219.007-4.821-.007.637-.322 1.28-.637 1.924-.952v-6.223c-.707.035-1.42.063-2.127.084 1.015-.497 2.03-.987 3.05-1.463zm75.767 3.017c-.154.483-.322.952-.497 1.421-.525-.343-1.042-.7-1.546-1.064-.44 1.61-.889 3.22-1.309 4.837a28.262 28.262 0 0 0 3.17-1.638c-.427.567-.84 1.134-1.26 1.701-1.679.056-3.358.077-5.037.147.119-.441.245-.882.378-1.323.573.315 1.14.644 1.7.987.364-1.463.728-2.926 1.035-4.403-1.308-.084-2.106.707-3.197 1.267 1.728-2.555 3.904-1.596 6.563-1.932zm22.116-.077l.896.028c-.329 1.82-.63 3.64-.805 5.481 2.232-.861 2.246-1.428 3.1-3.71.147 1.148.252 2.31.343 3.465.51-.602 1.021-1.211 1.546-1.806a45.21 45.21 0 0 1-.833 1.883c-.692.035-1.385.042-2.085.007l-2.406.378c-.448 1.183-.896 2.303-1.736 3.269.28-3.094 1.197-5.957 1.98-8.995zm4.163.182a6.227 6.227 0 0 1-.174 2.254c-1.225-.21-1.218-2.527.174-2.254zm-24.334.644l.504-.287.503.28-.006.567-.511.287-.504-.273.014-.574zm14.273 1.302l-.007.686c-2.798-.021-5.71.203-8.48-.217 2.638-.833 5.738-.406 8.487-.469zm-13.77.287c-.048.952-.097 1.904-.16 2.856.287.378.58.756.867 1.127-.804.245-1.609.49-2.42.728.314-1.239.671-2.464 1.028-3.689l-1.966.735a66.84 66.84 0 0 1 2.652-1.757zm27.218.042c-.021 1.295-.05 2.576.105 3.885 1.084-1.029 1.476-2.744 2.218-4.067-.014 2.604-.525 4.592-1.651 6.923-.854-.224-1.708-.448-2.561-.686.287-.406.567-.819.853-1.225.035-1.274.161-2.541.308-3.808l-1.924.714a66.356 66.356 0 0 1 2.652-1.736zm-177.059 1.33c-3.932 3.444-3.988 10.073-.007 13.503-.972-2.31-2.246-4.144-2.064-6.769-.189-2.632 1.14-4.41 2.071-6.734zm29.436.014c.91 2.31 2.252 4.144 2.092 6.72.153 2.555-1.169 4.459-2.071 6.762 3.883-3.528 3.995-10.01-.021-13.482zm-13.308 1.036l.7.007V50.1h-.7V37.416zm-26.986.756c1.833.021 3.666.021 5.499-.007.434 1.085 1.42 1.771.65 2.94-.944 2.079-3.617 1.813-5.506 2.184-.182.791-.364 1.582-.553 2.373.364.301.721.602 1.078.91-1.231.035-2.463.063-3.694.112.657-.693 1.364-1.204 1.602-2.184.616-2.044 1.406-4.2.924-6.328zm1.924.434a97.134 97.134 0 0 0-1.029 3.969l3.12-.168c.546-1.085 1.211-1.946 1.19-3.213-1.084-.266-2.183-.42-3.281-.588zm186.553.84c-1.015.119-1.442.588-1.288 1.421 1.008.098 1.442-.371 1.288-1.421zm-170.16 1.61c-.154.483-.322.952-.497 1.428a60.555 60.555 0 0 1-1.546-1.071c-.44 1.61-.889 3.22-1.309 4.837a31.762 31.762 0 0 0 3.184-1.638c-.427.56-.854 1.127-1.273 1.701-1.68.056-3.359.077-5.038.147a46.9 46.9 0 0 1 .378-1.323c.574.315 1.14.644 1.707.987.357-1.463.72-2.926 1.028-4.403-1.308-.084-2.106.7-3.197 1.26 1.728-2.548 3.904-1.589 6.563-1.925zm17.233-.546c-.05 1.687-.462 3.304-.63 4.963l1.19 1.218c.881-2.191 1.049-4.711 2.82-6.279-.463 2.569-.903 5.348-2.065 7.7-.546 1.176-2.33 1.148-3.421 1.463l-.21-2.275 1.14-.021c-.189.7-.37 1.407-.545 2.107a27.741 27.741 0 0 0 2.882-2.478c-.972-.224-1.938-.434-2.91-.644.16-1.68.496-3.255.972-4.879a54.993 54.993 0 0 1-2.533 1.694c.994-1.043 2.078-1.827 3.31-2.569zm73.227.371c.546.882 1.036 1.792 1.526 2.702-1.519.014-3.037.007-4.555.014.384.812.797 1.603 1.245 2.366 1.204.084 2.358-.609 3.484-1.029-1.294 1.036-2.35 2.037-4.149 1.414-1.805-1.12-1.301-2.905-1.028-4.655 1.133-.357 2.302-.609 3.477-.812zm1.358.049c.902.028 1.805.056 2.707.077.252.777.511 1.554.77 2.331.322-.791.63-1.589.93-2.387 1.589.028 3.17.063 4.751.252.798-.098 1.603-.196 2.407-.301.483.777 1.183 1.617 1.371 2.534.154 1.246-.804 2.247-1.413 3.234a173.828 173.828 0 0 0-3.267-.427c.399.847.811 1.673 1.245 2.499-.874 0-1.756.007-2.63.014l1.098-2.569c-1.155.175-2.31.343-3.464.504a24.828 24.828 0 0 0-1.406-2.443c-.35.777-.672 1.561-.98 2.352l-2.161.035a58.498 58.498 0 0 0 3.197-2.688 35.66 35.66 0 0 0-3.155-3.017zm-1.267 1.519c-.539-1.617-2.554-.903-2.666.595.75.203 2.526.525 2.666-.595zm7.997-1.26c-1.077.525-2.064 1.176-3.036 1.876.462.805.958 1.582 1.49 2.338.7.525 1.798.392 2.645.462-.322-1.596.455-3.661-1.099-4.676zm4.205.245c-.902.252-1.728.224-2.322 1.05-.105 1.008-.077 2.058.153 3.045.728.273 1.47.518 2.218.742l.987-2.625c-.343-.742-.686-1.477-1.036-2.212zM42.362 42.505l.504-.287.504.28-.007.567-.511.287-.497-.273.007-.574zm28.449-.098c2.763-.014 5.52-.014 8.284 0l-.007.686c-2.757.014-5.52.014-8.284 0l.007-.686zm13.258.693h39.881v.7H84.07v-.7zm73.976.224c2.757-.427 5.647-.189 8.438-.217l-.007.686c-2.728-.077-5.82.392-8.43-.469zm10.684-.224h54.575v.7h-54.575v-.7zm-125.863.994c-.05.952-.098 1.904-.161 2.856.287.378.58.749.867 1.127-.804.245-1.616.49-2.42.728.314-1.239.671-2.464 1.028-3.689l-1.973.735a67.085 67.085 0 0 1 2.659-1.757zm27.945.413c2.756-.014 5.52-.014 8.284 0l-.007.686c-2.757.014-5.52.014-8.284 0l.007-.686zm132.762.455c.406.749.714 1.526.924 2.331-.644 1.344-1.876 2.457-2.827 3.591l2.84-.637-.28 1.253c-1.259 0-2.511 0-3.77.007.881-1.176 1.91-2.303 2.61-3.598.279-1.127.216-2.233-1.274-1.967-.12.588-.217 1.183-.315 1.778-.434-.343-.868-.686-1.294-1.036 1.091-.938 1.938-1.463 3.386-1.722zM98.035 45.9c8.627-.028 17.282.021 25.915 0v.7h-1.098c-.322 2.163-1.644 3.437-3.03 4.991l2.827-.651-.28 1.26c-1.26 0-2.512.007-3.771.007.889-1.176 1.91-2.303 2.61-3.598.434-1.708-.105-1.743-1.588-2.289.063.679.132 1.365.202 2.044a88.479 88.479 0 0 0-1.231-.469c.21-.427.413-.854.623-1.281-7.382-.014-14.77-.042-22.152.021-2.14 4.732-4.443 9.394-6.696 14.077-.147.602-.482.77-1.007.511-1.113-1.967-1.896-4.144-2.708-6.244l-1.434.357c.685-.595 1.371-1.19 2.057-1.792.93 2.086 1.847 4.179 2.687 6.307 1.896-4.053 3.84-8.085 5.779-12.117.469-1.029 1.07-1.827 2.295-1.834zm89.117 1.456a50.62 50.62 0 0 1 3.092-.028 69.65 69.65 0 0 1 1.616 1.218l-.042 2.289c-1.266 1.372-2.546 2.737-3.75 4.165 1.323-.329 2.617-.7 3.87-1.239-.064.644-.12 1.295-.175 1.939-1.729 0-3.457.007-5.185 0 1.861-2.52 4.247-3.871 3.918-7.385-1.12-.308-2.239-.616-3.344-.959zm-88.858.7a50.62 50.62 0 0 1 3.092-.028 69.65 69.65 0 0 1 1.616 1.218l-.042 2.289c-1.266 1.372-2.546 2.737-3.75 4.165 1.323-.329 2.617-.7 3.87-1.239-.064.644-.12 1.295-.176 1.939-1.728 0-3.456.007-5.184 0 1.861-2.52 4.247-3.871 3.918-7.392a91.141 91.141 0 0 1-3.344-.952zm89.11.147c.58.49.79 1.113.63 1.883-1.351.518-1.729-1.344-.63-1.883zm-88.859.7c.581.49.791 1.113.63 1.883-1.35.518-1.728-1.344-.63-1.883zm96.639 1.197c1.441-.035 2.89-.014 4.33-.007v.707h-1.196c-.119 2.352-.867 3.458-2.371 5.159-.847-.294-2.037-.343-2.708-.973-.854-2.044.329-3.696 1.945-4.886zm-90.04.693c1.833.007 3.673.007 5.513.007l.014.693c-.763.042-1.519.091-2.281.133.147 1.596.3 3.192.469 4.788l-1.036-.014c.035-1.813.077-3.619.042-5.425-1.336 1.939-1.455 4.277-2.988 6.055.224-2.058 1.078-3.836 1.827-5.726-.98.406-1.952.826-2.918 1.26.448-.588.903-1.176 1.357-1.771zm8.179.007c1.44-.035 2.89-.014 4.33-.007v.707h-1.196c-.119 2.352-.868 3.458-2.372 5.159-.846-.294-2.043-.336-2.708-.973-.853-2.044.336-3.696 1.946-4.886zm83.561.7c-.133-1.414-1.616-.434-2.127.161-.867.994-.749 2.401-.993 3.647 2.33-.168 3.666-1.421 3.12-3.808zm-81.861.7c-.133-1.414-1.617-.434-2.127.161-.868.994-.749 2.408-.994 3.647 2.323-.168 3.666-1.421 3.12-3.808zm86.598 1.715c-.021 1.288-.05 2.597.105 3.906 1.084-1.029 1.476-2.744 2.218-4.067-.014 2.597-.525 4.592-1.651 6.916-.854-.217-1.708-.441-2.561-.672.28-.413.566-.826.853-1.232.035-1.281.161-2.548.308-3.815l-1.854.714a64.262 64.262 0 0 1 2.582-1.75zm-81.862.7c-.02 1.295-.049 2.59.105 3.906 1.078-1.029 1.477-2.744 2.218-4.067-.007 2.66-.56 4.711-1.735 7.084-.678-.273-1.378-.525-2.043-.84a26.85 26.85 0 0 1 .273-1.498c.147-1.19.322-2.373.51-3.549l-1.91.714a69.68 69.68 0 0 1 2.582-1.75zm82.422 3.731c-1.015.119-1.442.588-1.288 1.421 1.008.105 1.442-.371 1.288-1.421zm-81.862.707c-1.014.112-1.448.581-1.287 1.414 1.007.098 1.441-.371 1.287-1.414z" opacity=".6"/><path d="M717 173.134v2.748c-1.579.09-3.158.125-4.743.208-.288-.507-.576-1.008-.87-1.51.498-.96 1.003-1.829 1.796-2.58H717v1.133zM689.543 172h1.88l.527.466.52.494c.252 2.184-1.566 3.103-2.744 4.682l2.813-.78-.217 1.413c-1.291-.007-2.575-.007-3.866-.014.94-1.433 3.592-3.555 2.512-5.378l-1.41-.542.083 2.122a65.057 65.057 0 0 0-1.234-.494c.371-.661.75-1.315 1.136-1.969zm-68.533.438c-1.354 2.164-2.898 3.903-3.824 6.317-1.712 4.355-1.649 9.558-1.186 14.142.463 4.14 2.456 7.506 5.038 10.686-2.357-.814-3.431-2.95-4.568-4.995-2.42-4.751-2.245-10.233-1.79-15.409.759-4.042 2.597-8.542 6.33-10.74zm33.576-.048c-1.046 2.212-2.365 3.979-2.148 6.567-.203 2.566 1.032 4.417 2.155 6.601-1.102-1.001-2.155-1.906-2.59-3.38-.87-3.548-.638-7.444 2.583-9.788zm29.386 0c2.26 1.94 3.087 3.54 2.947 6.567.147 2.928-.75 4.702-2.926 6.601 1.024-2.233 2.301-4.02 2.14-6.601.175-2.588-1.15-4.327-2.161-6.567zm10.827.18c2.266.912 3.642 3.555 4.687 5.621 2.54 6.01 2.645 13.086.302 19.172-1.074 2.421-2.435 5.127-5.017 6.227 1.228-1.879 2.66-3.472 3.501-5.517 2.484-6.212 2.463-13.224.162-19.485-.864-2.282-2.421-3.958-3.635-6.018zm18.665-.104c-.639.946-.653 1.962-.821 3.04.75-.02 1.508-.042 2.259-.07-.302-1.46.814-3.123-1.438-2.97zm-62.836.828c-.54 2.97-1.6 5.725-1.817 8.751.61-.598 1.22-1.196 1.831-1.78a7.496 7.496 0 0 1-1.15 1.947c-1.418.14-3.06.118-4.47-.076-1.13-1.635-.323-4.16 1.389-5.065a31.28 31.28 0 0 1 2.554.007c0-1.001.12-1.934-.232-2.894.632-.299 1.264-.598 1.895-.89zm54.507.139h5.494v.612h-5.508l.014-.612zm-48.22 3.75c1.635-.202 3.298-.202 4.947-.32a59.996 59.996 0 0 1-.28 1.55c-.527-.389-1.04-.785-1.558-1.182-.457 1.566-.934 3.13-1.376 4.703 1.404-.264 2.126-.557 3.067-1.635-.372.626-.73 1.252-1.095 1.885-1.642.007-3.27.028-4.898.244a43.267 43.267 0 0 1-.112-1.343c.653-.028 1.27.292 1.852.953.414-1.363.828-2.727 1.081-4.132-.744-1.287-2.203.682-2.926 1.12.407-.64.835-1.252 1.298-1.843zm16.139 0c1.635-.202 3.298-.202 4.947-.32a59.992 59.992 0 0 1-.281 1.55c-.526-.389-1.039-.785-1.558-1.182-.456 1.566-.933 3.13-1.375 4.703 1.403-.264 2.126-.557 3.06-1.642-.366.633-.724 1.26-1.081 1.892-1.642.007-3.277.028-4.905.244a43.274 43.274 0 0 1-.112-1.343c.652-.028 1.27.292 1.852.953.414-1.363.828-2.727 1.08-4.132-.757-1.287-2.196.682-2.925 1.113.407-.633.835-1.245 1.298-1.836zm-24.671.125c-2.618.34-2.583 2.344-3.08 4.41.722.021 1.438.049 2.16.07.407-1.482.723-2.957.92-4.48zm15.563 1.064l.52-.285.504.271-.014.557-.519.292-.512-.271.02-.564zm17.331-.153h.576l.28.501-.287.5h-.569l-.28-.5.28-.5zm-17.036 1.795c.147 1.336.301 2.671.638 3.972-.687.23-1.382.452-2.07.668.239-1.28.576-2.525.933-3.77l-1.88.834a63.976 63.976 0 0 1 2.379-1.704zm16.37.202c.42.264.842.542 1.256.827-.737 2.366-.232 5.482-3.445 5.802l-.028-1.843c.435.382.863.765 1.29 1.155.485-1.74.864-3.486 1.215-5.253l-2.113.73c.604-.486 1.207-.96 1.825-1.418zm-12.855.765c-1.691.23-.379 1.315.042 2.08a41.434 41.434 0 0 1-.47 2.47c.737-1.538 1.72-2.964.428-4.55zm-107.196.452c-1.045 2.212-2.364 3.98-2.147 6.567-.203 2.567 1.032 4.417 2.154 6.602-1.101-1.002-2.154-1.906-2.589-3.381-.87-3.548-.631-7.444 2.582-9.788zm30.088 0c2.26 1.94 3.095 3.54 2.947 6.567.148 2.929-.75 4.703-2.926 6.602 1.025-2.233 2.302-4.021 2.14-6.602.176-2.588-1.15-4.327-2.16-6.567zm-37.596.863a64.993 64.993 0 0 1-1.186 5.3c1.186-.841 2.316-1.446 3.698-1.933l.14 1.76c-1.964-.89-1.908-.57-3.62.424 1.193.925 1.796 1.036 1.831 2.671l1.221 1.002-2.154-.188c-.274-1.196-.035-2.205-1.235-2.908-.372 1.399-.814 2.484-1.747 3.61v-1.829c.582-2.01 1.186-4.02 1.754-6.031-.309-.257-.624-.508-.933-.765.744-.369 1.488-.745 2.231-1.113zm71.474.765c.378 2.414.182 4.974.133 7.416.638.326 1.277.66 1.915.994-1.6.014-3.192.014-4.792-.014.631-.313 1.256-.619 1.894-.918-.007-2.045 0-4.097 0-6.142-.701-.035-1.403-.077-2.112-.119a64.425 64.425 0 0 1 2.962-1.217zm10.602.696c.105 1.412.126 2.824.14 4.236 1.263.007 2.526.007 3.79.014v.682c-1.25.007-2.499.007-3.748.007-.105 1.398.19 2.615-.757 3.77a67.269 67.269 0 0 1-.176-3.756l-3.684-.021v-.682c1.221-.007 2.45-.014 3.67-.014.154-1.42-.365-3.214.765-4.236zm-72.238 2.47c1.635-.203 3.305-.203 4.947-.32a59.994 59.994 0 0 1-.28 1.55c-.527-.39-1.04-.786-1.559-1.182-.456 1.565-.933 3.13-1.375 4.702 1.403-.264 2.12-.55 3.052-1.634-.358.626-.715 1.252-1.073 1.885-1.642.007-3.277.028-4.905.243a43.269 43.269 0 0 1-.112-1.342c.652-.028 1.27.292 1.852.953.414-1.37.828-2.727 1.088-4.132-.78-1.287-2.196.674-2.933 1.113.407-.633.842-1.246 1.298-1.837zm16.84 0c1.635-.203 3.298-.203 4.947-.32a59.994 59.994 0 0 1-.28 1.55c-.527-.39-1.04-.786-1.558-1.182-.456 1.565-.934 3.123-1.376 4.688 1.432-.243 2.12-.528 3.06-1.634-.365.633-.723 1.266-1.08 1.899-1.643.007-3.278.028-4.906.243a43.269 43.269 0 0 1-.112-1.342c.653-.028 1.27.292 1.853.953.414-1.37.828-2.727 1.087-4.132-.772-1.287-2.196.674-2.933 1.113.407-.633.835-1.246 1.298-1.837zm-9.81.493l.52-.285.505.271-.014.557-.52.285-.511-.265.02-.563zm18.034-.153h.575l.281.5-.288.502h-.568l-.28-.501.28-.501zm11.17.737c2.786-.007 5.572-.007 8.358.007v.682c-2.793.014-5.579.014-8.364.007l.007-.696zm44.894 0h49.834l-.007.696h-49.82l-.007-.696zm-73.803 1.058c.148 1.335.302 2.664.639 3.972-.688.23-1.382.452-2.07.668.239-1.28.575-2.525.933-3.77l-1.88.834a63.976 63.976 0 0 1 2.378-1.704zm17.072.201c.421.265.842.543 1.256.828-.736 2.38-.224 5.468-3.445 5.809l-.028-1.85c.435.382.863.765 1.291 1.154.484-1.739.863-3.485 1.214-5.252l-2.112.73c.603-.486 1.207-.96 1.824-1.419zm11.838.828c2.785-.007 5.571-.007 8.357.007v.682c-2.786.014-5.579.014-8.364.007l.007-.696zm-24.692.633c-1.67.216-.4 1.329.042 2.08a42.522 42.522 0 0 1-.47 2.47c.736-1.53 1.719-2.964.428-4.55zm104.508-.083c.463.925 1.179 1.579.786 2.678-.751 1.106-1.747 2.094-2.632 3.11l2.814-.772-.217 1.405c-1.291-.007-2.576-.007-3.867-.014.884-1.155 1.923-2.268 2.618-3.548.315-1.628.168-1.997-1.537-2.289.035.71.063 1.42.091 2.122-.442-.3-.89-.598-1.34-.897 1.172-1.503 1.39-1.573 3.284-1.795zm-3.95.793c-.878 2.859-1.495 5.788-2.31 8.668.618-.341 1.236-.682 1.853-1.009-.547 1.231-1.382 1.252-2.54 1.677.056-1.399.063-2.755.52-4.098.413-1.607 1.206-2.775.392-4.417.695-.278 1.39-.557 2.084-.821zm-17.297.911a91.99 91.99 0 0 1 3.108-.222c.492.473.99.939 1.48 1.412l.022 2.15c-1.228 1.342-2.498 2.643-3.733 3.978 1.6-.16 2.596-.187 3.782-1.286l-.105 2.15c-1.733.006-3.466.013-5.2-.008 1.158-1.544 2.526-2.929 3.621-4.515.26-.911.154-1.947.21-2.894a81.58 81.58 0 0 1-3.185-.765zm.168.724c.569.494.78 1.127.632 1.899-1.34.5-1.726-1.37-.632-1.9zm9.971 1.767c.505.786.99 1.586 1.46 2.393a99.37 99.37 0 0 1 1.564-1.85c-.575 1.286-1.22 2.545-1.866 3.804.407.46.807.919 1.214 1.378-1.944-.515-3.712-.258-5.67-.16-1.628-.703-1.193-3.075-.322-4.202.849-1.203 2.301-1.113 3.62-1.363zm.007.723c-2.498-.556-3.55 2.108-3.389 4.104 1.193.48 2.021.334 3.186-.097.35-1.259.238-2.706.203-4.007z" opacity=".4"/><path d="M587.856 82h1.693c-.728 1.099-1.84 1.596-2.812 2.422-1.029 2.807-1.406 5.803-2.526 8.596-2.161-2.058-2.714-4.907-3.875-7.651-.455 2.968-1.021 5.754-2.917 8.176-.539-.427-1.084-.847-1.623-1.267.294-.371.588-.749.882-1.127.384.238.762.476 1.147.714 1.3-2.849 1.826-5.859 2.497-8.897 2.169 2.002 2.148 5.572 3.806 8.064 1.203-2.716 1.077-7.357 3.728-9.03zm-82.608.315c-1.007 2.282-2.364 4.06-2.161 6.685-.189 2.618 1.091 4.459 2.161 6.713-1.056-1.085-2.154-1.939-2.609-3.458-.888-3.668-.587-7.49 2.61-9.94zm50.234.014c2.21 1.96 3.155 3.619 2.973 6.671.189 2.954-.833 4.788-2.96 6.713.987-2.212 2.337-4.2 2.17-6.713.174-2.534-1.204-4.445-2.183-6.671zm37.907-.014c-1.007 2.282-2.357 4.06-2.161 6.685-.182 2.618 1.091 4.466 2.161 6.713-1.056-1.085-2.154-1.939-2.609-3.458-.888-3.668-.588-7.49 2.61-9.94zm46.036.007c2.21 1.967 3.155 3.626 2.973 6.678.19 2.954-.832 4.788-2.959 6.713.987-2.212 2.337-4.2 2.169-6.713.175-2.527-1.203-4.445-2.183-6.678zm-125.838.987l.7.007V96h-.714c.02-4.228.014-8.463.014-12.691zm88.14 0l.7.007V96h-.7V83.309zm-83.53.749c1.028 0 2.056-.007 3.085-.021-.161 1.078-.05 2.177.342 3.297 1.07-1.106 2.239-1.687 2.302-3.367.993.14 1.994.28 2.98.448-.637.175-1.266.343-1.91.511-1.014.952-2.014 1.911-3.022 2.87.812 1.764 1.504 3.423 2.98 4.753-1.07 0-2.133-.007-3.204-.007.231-1.421-.098-2.492-.63-3.801-1.125 1.218-2.378 2.03-2.622 3.787l-2.91-.021c2.042-1.064 3.812-2.128 4.96-4.207.153-1.589-1.33-3.171-2.351-4.242zm88.14 0c1.029 0 2.057-.007 3.086-.021-.161 1.078-.05 2.177.342 3.297 1.029-1.064 2.183-1.659 2.302-3.262.958.007 1.916.014 2.875.014-1.91.966-3.358 2.163-4.84 3.689.818 1.764 1.517 3.437 2.993 4.774-1.07 0-2.133-.007-3.204-.007.231-1.421-.098-2.492-.63-3.801-1.14 1.225-2.399 2.044-2.63 3.829-.979-.042-1.965-.098-2.945-.161.672-.287 1.35-.567 2.029-.833.98-1.008 2.336-2.03 2.966-3.283.175-1.575-1.33-3.178-2.343-4.235zM495.84 87.019c.7.049 1.399.084 2.098.105.79-.091 1.588-.203 2.379-.322.454 1.421 1.161 2.394.182 3.822-.875 1.694-2.274 1.722-3.96 2.072-.273 1.428-.405 1.393.441 2.667a70.488 70.488 0 0 0-2.98.007v-.371c.406-.266.811-.532 1.224-.798.427-2.366 1.028-4.683 1.63-7.007l-2.133 1.904c.37-.693.741-1.386 1.119-2.079zm12.997-.483c.028 1.883-.406 3.661-.888 5.467l1.51-.182c1.344-1.659.644-4.207 2.82-5.355-.756 3.136-.868 6.706-3.407 8.981-.755-.105-1.518-.217-2.273-.322a89.046 89.046 0 0 0-.056-1.932l1.182-.014c-.182.644-.364 1.288-.539 1.932 1.182-.658 1.93-1.288 2.68-2.422-.896-.126-1.791-.259-2.687-.385.042-1.806.357-3.388.882-5.11-.798.651-1.595 1.302-2.414 1.918.945-1.414 1.588-1.953 3.19-2.576zm26.568.021c.063 1.715-.287 3.255-.832 4.879.615.182 1.23.35 1.854.504.307-1.687.685-3.367 1.056-5.04l1.12-.028c-.407 1.645-.791 3.234-.75 4.942l.826.168c2.162-.546 1.301-3.955 1.581-5.565.413.763 1.098 1.155.825 2.086-.37 1.554-.832 4.249-3.008 3.906-1.266-.119-3.294.42-4.225-.581-.168-1.659.385-3.101.812-4.669-.784.63-1.574 1.253-2.365 1.876.917-1.533 1.511-1.89 3.106-2.478zm16.649.112c.462.84.923 1.68 1.371 2.52.532-.651 1.07-1.295 1.602-1.939-.616 2.002-2.504 3.395-.77 5.348-1.944-.483-3.532-.378-5.498-.175-1.658-.749-1.259-3.101-.37-4.284.706-1.127 2.497-1.134 3.665-1.47zm44.924-.133c.028 1.883-.406 3.661-.889 5.467l1.511-.182c1.344-1.659.644-4.207 2.82-5.355-.756 3.136-.868 6.706-3.407 8.981-.763-.105-1.518-.217-2.274-.322a59.369 59.369 0 0 0-.056-1.932l1.183-.014c-.182.644-.364 1.288-.539 1.932 1.19-.658 1.924-1.288 2.68-2.422-.896-.126-1.792-.259-2.687-.385.042-1.806.357-3.388.881-5.11a70.952 70.952 0 0 1-2.42 1.918c.951-1.414 1.595-1.953 3.197-2.576zm21.671.021c.07 1.715-.286 3.255-.832 4.879.615.182 1.238.35 1.854.504.307-1.687.685-3.367 1.056-5.04l1.12-.028c-.407 1.645-.791 3.234-.75 4.942l.826.168c2.162-.546 1.301-3.955 1.581-5.565.406.77 1.098 1.148.826 2.079-.371 1.561-.833 4.256-3.008 3.913-1.267-.119-3.295.42-4.226-.581-.168-1.659.385-3.101.812-4.669-.784.63-1.574 1.253-2.365 1.876.917-1.533 1.511-1.89 3.106-2.478zm16.65.112c.46.84.923 1.68 1.37 2.52.532-.651 1.07-1.295 1.602-1.939-.615 2.002-2.511 3.395-.77 5.348-1.951-.476-3.532-.378-5.498-.175-1.658-.749-1.259-3.101-.37-4.284.706-1.127 2.497-1.134 3.665-1.47zm-135.64.441c-2.602.98-2.483 2.814-2.644 5.264 2.896-.98 2.525-2.681 2.644-5.264zm52.381.42c-2.47-.63-3.533 2.107-3.407 4.081 1.092.553 3.603.588 3.386-1.183.049-.966.056-1.932.021-2.898zm83.244 0c-2.47-.63-3.525 2.107-3.407 4.081 1.092.553 3.603.588 3.386-1.19.05-.959.056-1.925.021-2.891zm-71.33.77c2.79 0 5.581-.007 8.365 0l-.007.7c-2.784.007-5.575 0-8.359 0v-.7zm0 2.1c2.79 0 5.574-.007 8.365 0l-.007.7c-2.784.007-5.575 0-8.359 0v-.7zm-35.593.329c.357.469.734.924 1.133 1.358.126 1.33-.56 2.429-1.07 3.612.126-1.715 1.07-2.471-.42-3.85.112-.371.231-.749.357-1.12zm14.69 0c.357.469.735.924 1.133 1.358.126 1.33-.56 2.429-1.063 3.619.105-1.729 1.063-2.471-.427-3.857.12-.378.231-.749.357-1.12zm83.244 0c.357.469.735.924 1.133 1.358.126 1.33-.56 2.422-1.063 3.619.105-1.729 1.07-2.471-.427-3.857.12-.378.231-.749.357-1.12z"/><path d="M126.129 240h.673c.077 2.449.091 4.905 0 7.353.638.335 1.277.67 1.908 1.005-1.592.028-3.192.021-4.784-.035.624-.3 1.249-.593 1.873-.886-.007-2.058 0-4.11.007-6.167-.702 0-1.396 0-2.097.007.82-.398 1.62-.83 2.42-1.277zm85.063 5.463c.575.9 1.192 1.528.834 2.665-.757 1.11-1.753 2.093-2.644 3.098l2.778-.838-.155 1.486c-1.304 0-2.61-.007-3.907-.02.884-1.152 1.93-2.275 2.61-3.552.238-1.318.294-2.016-1.235-2.246l-.61 2.288c-.239-.377-.477-.76-.709-1.144.54-1.612 1.572-1.563 3.038-1.737zm-58.73 2.12l.702.008c.007 4.214.007 8.428 0 12.642h-.701c0-4.214-.007-8.428 0-12.65zm3.508 0l.702.008c.007 4.214.007 8.428 0 12.642h-.702c-.007-4.214-.007-8.428 0-12.65zm46.299 0l.701.008c.007 4.214.007 8.428 0 12.642h-.701c0-4.214-.007-8.435 0-12.65zm3.507 0l.702.008c.007 4.214.007 8.428 0 12.642h-.702c-.007-4.214-.007-8.435 0-12.65zm32.269 0l.701.008c.007 4.214.007 8.428 0 12.642h-.701c-.007-4.214-.007-8.428 0-12.65zm3.507 0l.702.008c.007 4.214.007 8.428 0 12.642h-.702c-.007-4.214 0-8.435 0-12.65zm12.627 0l.702.008c.007 4.214.007 8.428 0 12.642h-.702c-.007-4.214-.007-8.435 0-12.65zm3.508 0l.701.008c.007 4.214.007 8.428 0 12.642h-.701c-.007-4.214-.007-8.435 0-12.65zm-168.134.698c1.234-.788 2.09 1.089.59 1.347-.836-.237-1.032-.684-.59-1.347zm70.984.056c1.108.014 2.217.007 3.318-.035-.547.88-.463 1.94.238 3.196 1.067-1.089 2.428-1.424 2.084-3.182 1.024.05 2.055.091 3.08.112-1.979.746-3.41 2.12-4.848 3.614.849 1.807 1.312 3.53 3.052 4.737a69.43 69.43 0 0 0-3.41.021c.52-1.493.12-2.414-.554-3.74-1.115 1.27-2.637 1.85-2.49 3.747a443.749 443.749 0 0 0-3.045-.112c1.972-.809 3.641-2.03 4.827-3.802.66-1.723-1.088-3.488-2.252-4.556zm60.988.782c.035 1.374.042 2.755.049 4.13 1.27.007 2.546.007 3.816.007l-.007.697c-1.263 0-2.526 0-3.788.007-.134 1.291.435 2.847-.821 3.684a92.223 92.223 0 0 1-.098-3.684c-1.22 0-2.448-.007-3.676-.007v-.697c1.22 0 2.448-.007 3.669-.007.224-1.158-.575-3.67.856-4.13zm-144.41 2.155h.33c2.497.189 5.107.217 7.597-.083 1.712.767-.063 3.858-.154 5.204a117.6 117.6 0 0 1 1.894-1.842c-.631 2.003-1.214 2.63-3.255 1.612.723-1.479.94-3.014 1.136-4.632-1.052.376-2.111.502-2.434 1.737-.694 1.597.014 3.09-2.055 3.704.456-1.765.828-3.53 1.08-5.344-1.192.3-2.14.293-2.525 1.64-.723 1.611.035 3.07-2.063 3.704.386-1.87.968-3.69 1.382-5.553A89.115 89.115 0 0 0 76 253.353v-.37l1.115-1.709zm12.964-.383c.35 2.016-.547 3.516-.919 5.504.596-.635 1.2-1.248 1.824-1.855-.379 1.067-.484 1.793-1.642 2.225a18.66 18.66 0 0 1-1.592-.663c.73-1.507 1.312-3.028 1.698-4.667-.779.628-1.55 1.27-2.33 1.905.758-1.668 1.263-1.863 2.961-2.45zm3.346.328l1.452.558c-1.192 1.556-.666 4.772-2.778 5.197.365-1.87.947-3.648 1.445-5.497-.75.62-1.5 1.242-2.258 1.863.498-.726 1.01-2.338 2.14-2.121zm1.172 0c.841-.042 1.683-.077 2.525-.105 1.333 1.228-.098 3.76-.239 5.288a50.62 50.62 0 0 1 1.817-1.862c-.624 2.016-1.171 2.65-3.227 1.618.653-1.367.961-2.728 1.193-4.207-.687-.244-1.382-.488-2.07-.732zm77.55-.293c.357 1.653-.344 2.979-.61 4.576.28.468.876.691 1.781.656.26-1.681.582-3.349 1.024-4.995l1.144-.028c-.38 1.542-1.067 3.37-.73 4.932 2.946.838 2.203-3.641 2.252-5.232 1.726.949.736 2.805.26 4.186-.681 2.567-3.873 1.353-5.844 1.605-1.67-.628-.21-3.914.084-5.114-.66.467-1.326.928-1.999 1.381.561-1.451 1.305-1.493 2.638-1.967zm25.246-.056c.344 1.89-.33 3.467-.813 5.26l1.543.035c1.67-1.835.316-4.458 2.862-5.288-.68 2.407-.919 5.176-2.119 7.374-.89 1.5-2.09 1.158-3.591 1.256l-.063-2.08 1.213-.013c-.21.579-.42 1.165-.624 1.758 1.578-.39 1.908-.963 2.638-2.31l-2.533-.292c0-1.821.21-3.384.849-5.086-.772.62-1.55 1.235-2.357 1.82.75-1.464 1.508-1.827 2.995-2.434zm36.408.181c.49.782.982 1.563 1.452 2.358.512-.614 1.024-1.228 1.543-1.842a40.621 40.621 0 0 1-1.838 3.817c.407.488.814.983 1.228 1.472-1.964-.789-3.704-.216-5.69-.203-1.64-.788-1.22-3.048-.343-4.255.933-1.263 2.238-1.138 3.648-1.347zm12.704-.125c.358 1.653-.344 2.979-.61 4.576.28.468.876.691 1.781.656.26-1.681.583-3.349 1.024-4.995l1.144-.028c-.379 1.535-1.066 3.37-.73 4.932 2.947.838 2.203-3.641 2.252-5.225 1.726.942.737 2.798.26 4.179-.674 2.567-3.873 1.353-5.844 1.605-1.67-.628-.21-3.914.084-5.114-.659.467-1.325.928-1.999 1.388.561-1.458 1.305-1.5 2.638-1.974zm-12.718.92c-2.287-.886-3.67 2.198-3.346 4.012 1.2.586 1.943.398 3.114-.105.463-1.172.232-2.658.232-3.906zm28.845.552a215.615 215.615 0 0 0-.021 5.637c.463.167.926.335 1.389.51v.174c-1.179.034-2.357.104-3.529.167l1.263-1.11c.014-1.178.021-2.357.042-3.536-.49-.224-.975-.44-1.459-.663a89.927 89.927 0 0 1 2.315-1.18zm-159.982.858c15.903 0 31.805-.007 47.708 0l.007.697c-15.903.007-31.805.007-47.708 0l-.007-.697zm88.304 0l-.007.697c-2.771-.034-5.605.175-8.355-.167 2.441-1.116 5.703-.307 8.362-.53zm20.238.579c.575.907 1.192 1.528.827 2.665-.75 1.11-1.746 2.093-2.637 3.098l2.778-.838-.155 1.487c-1.304 0-2.602-.007-3.907-.021.891-1.152 1.922-2.275 2.61-3.552.238-1.332.287-2.016-1.242-2.253-.196.76-.386 1.52-.575 2.281-.26-.376-.512-.753-.758-1.137.674-1.612 1.501-1.556 3.059-1.73zm-107.483 3.74c1.038-.084 2.07-.14 3.108-.182l1.473 1.402c.007.726.007 1.445.014 2.163a97.405 97.405 0 0 1-3.697 3.914c1.719-.098 2.54-.014 3.732-1.284l-.084 2.226c-1.719 0-3.438.007-5.163.007 1.024-1.66 2.525-2.937 3.598-4.542.183-.956.148-1.96.169-2.93-1.074-.182-2.126-.405-3.15-.775zm.161.753c.561.46.772 1.11.625 1.94-1.291.453-1.74-1.382-.625-1.94zm-16.569 1.64c-.07 1.353-.14 2.706-.147 4.067 1.22-1.026 1.241-2.372 1.606-3.802l.66-.014c-.113 1.66-.491 2.979.813 4.29-1.22-.279-2.462-.02-3.669-.279-1.157-.767-.126-2.463.057-3.453l-1.852.907c.771-.775 1.459-1.375 2.532-1.717zm3.914.202c.4.893.534 2.093-.21 2.84-.47-.852-.8-2.233.21-2.84zm19.747.118l1.452.559c-1.192 1.555-.659 4.772-2.777 5.197.364-1.87.947-3.649 1.445-5.497-.751.62-1.502 1.241-2.26 1.862.506-.725 1.004-2.337 2.14-2.12zm1.172 0c.842-.041 1.683-.076 2.525-.104 1.333 1.228-.098 3.76-.238 5.288a50.62 50.62 0 0 1 1.817-1.863c-.625 2.017-1.172 2.651-3.227 1.619.652-1.368.96-2.721 1.192-4.207-.687-.244-1.382-.488-2.07-.733zm28.656 1.221a32.745 32.745 0 0 1-1.052 4.772c.322.217.652.426.982.642.147-.795.343-1.583.575-2.35.996-1.09 2.041-.615 3.346-.657-.547 1.633-1.094 1.584-2.694 1.891v1.653c1.291-.286 2.568-.579 3.852-.879.54.517 1.227.768 2.062.76-1.024-1.401-2.596-1.688-1.76-3.669.77.363 2.49-.02 2.412 1.165-.042.956-.147 2.435-1.045 3-.975.09-1.733-.328-2.617-.649-1.017.3-1.844.817-2.932.489-1.255-.482-2.259.376-3.444-.328.379-1.5.982-3.007 1.13-4.549-.043-1.416-.141-1.074 1.185-1.29zm-20.701 2.477c.694.774.231 2.344-.091 3.188-.239.845-1.866.517-2.547.67a64.477 64.477 0 0 0-.547-1.5c.898.523 1.873.823 2.89.998-.785-.88-1.6-1.71-2.336-2.623.87-1.012 1.382-.928 2.63-.733zm5.156-.279c-.28.963-.568 1.919-.856 2.874.267.447.533.893.807 1.34a26.026 26.026 0 0 0-3.459-.084 90.74 90.74 0 0 0-.827-1.388c.33-.74.568-1.682 1.192-2.219 1.003-.649 2.006-.453 3.143-.523zm5.233.363c.765-.14 1.522-.286 2.28-.426.098 1.396.196 2.756.673 4.089l-2.076.083a84.66 84.66 0 0 1 .835-3.74c-2.68.6-1.277 3.043-3.2 4.11.141-1.353.31-2.707.436-4.06-2.182.767-1.27 2.84-3.003 4.13.106-1.347.386-2.63.842-3.851l-1.775.272c1.726-1.089 3.045-1.019 4.988-.607zm3.71-.335c1.207.035 2.414.063 3.62.07.428 1.779.134 2.511-.855 4.04-.695-.022-1.39-.029-2.09-.043.083.733.182 1.465.294 2.198h-1.901c.89-1.228.982-2.316 1.038-3.788.449-.468.898-.928 1.347-1.396l-.19 2.75c1.705-1.026 1.579-1.473 1.649-3.357-.737.258-1.48.517-2.224.775l-.687-1.25zm-10.739.83c-1.045-.732-1.698 2.533-.561 2.644.842-.418 1.059-1.897.561-2.644z" opacity=".5"/></g></svg>