<svg width="630" height="545" viewBox="0 0 630 545" xmlns="http://www.w3.org/2000/svg" xmlns:xlink="http://www.w3.org/1999/xlink"><title>hero illustration</title><defs><path d="M31.124 0h131.598s21.056 84.883 27.49 89.734H3.635C10.068 84.884 31.124 0 31.124 0z" id="a"/><path id="c" d="M0 0H96.923V285.923H0z"/></defs><g fill="none" fill-rule="evenodd"><g transform="translate(218.077 443.817)"><path fill="#B2B2B2" d="M0 96.04H193.846V100.89H0z"/><path d="M1.474 92.168c.715-1.88 2.923-3.404 4.93-3.404h181.038c2.007 0 4.215 1.526 4.93 3.404l1.474 3.872H0l1.474-3.872z" fill="#C3C3C3"/><mask id="b" fill="#fff"><use xlink:href="#a"/></mask><use fill="#D8D8D8" xlink:href="#a"/><path fill="#C0C0C0" mask="url(#b)" d="M15.023 31.221H178.823V36.686H15.023z"/></g><path d="M0 411.923h630v48.51c0 8.034-6.518 14.546-14.531 14.546H14.53C6.506 474.98 0 468.47 0 460.434v-48.51z" fill="#D8D8D8"/><path d="M0 14.537C0 6.51 6.518 0 14.531 0H615.47C623.494 0 630 6.518 630 14.537V412.29H0V14.537z" fill="#3D3D3D"/><rect fill="#5C5C5C" x="305.308" y="434.215" width="19.387" height="19.385" rx="9.692"/><g transform="translate(33.923 33.953)" fill="#FFF"><path d="M0 0H562.154V344.383H0z"/></g><g transform="translate(63 62.03)"><path fill-opacity=".316" fill="#4B82D4" d="M305.308 261.692H402.231V285.923H305.308z"/><path fill-opacity=".316" fill="#4B82D4" d="M203.538 261.692H300.461V285.923H203.538z"/><path fill-opacity=".316" fill="#4B82D4" d="M101.769 261.692H198.692V285.923H101.769z"/><path fill-opacity=".316" fill="#4B82D4" d="M0 261.692H96.923V285.923H0z"/><path fill-opacity=".316" fill="#4B82D4" d="M305.308 232.615H402.231V256.846H305.308z"/><path fill-opacity=".316" fill="#4B82D4" d="M203.538 232.615H300.461V256.846H203.538z"/><path fill-opacity=".316" fill="#4B82D4" d="M101.769 232.615H198.692V256.846H101.769z"/><path fill-opacity=".316" fill="#4B82D4" d="M0 232.615H96.923V256.846H0z"/><path fill-opacity=".3" fill="#FF7576" d="M305.308 203.538H402.231V227.769H305.308z"/><path fill-opacity=".316" fill="#4B82D4" d="M203.538 203.538H300.461V227.769H203.538z"/><path fill-opacity=".316" fill="#4B82D4" d="M101.769 203.538H198.692V227.769H101.769z"/><path fill-opacity=".316" fill="#4B82D4" d="M0 203.538H96.923V227.769H0z"/><path fill-opacity=".316" fill="#4B82D4" d="M305.308 174.462H402.231V198.69299999999998H305.308z"/><path fill-opacity=".316" fill="#4B82D4" d="M203.538 174.462H300.461V198.69299999999998H203.538z"/><path fill-opacity=".316" fill="#4B82D4" d="M101.769 174.462H198.692V198.69299999999998H101.769z"/><path fill-opacity=".316" fill="#4B82D4" d="M0 174.462H96.923V198.69299999999998H0z"/><path fill-opacity=".316" fill="#4B82D4" d="M305.308 145.385H402.231V169.61599999999999H305.308z"/><path fill-opacity=".32" fill="#FF7576" d="M203.538 145.385H300.461V169.61599999999999H203.538z"/><path fill-opacity=".316" fill="#4B82D4" d="M101.769 145.385H198.692V169.61599999999999H101.769z"/><path fill-opacity=".316" fill="#4B82D4" d="M0 145.385H96.923V169.61599999999999H0z"/><path fill-opacity=".316" fill="#4B82D4" d="M305.308 116.308H402.231V140.53900000000002H305.308z"/><path fill-opacity=".316" fill="#4B82D4" d="M203.538 116.308H300.461V140.53900000000002H203.538z"/><path fill-opacity=".316" fill="#4B82D4" d="M101.769 116.308H198.692V140.53900000000002H101.769z"/><path fill-opacity=".316" fill="#4B82D4" d="M0 116.308H96.923V140.53900000000002H0z"/><path fill-opacity=".316" fill="#4B82D4" d="M305.308 87.231H402.231V111.46199999999999H305.308z"/><path fill-opacity=".316" fill="#4B82D4" d="M203.538 87.231H300.461V111.46199999999999H203.538z"/><path fill-opacity=".316" fill="#4B82D4" d="M101.769 87.231H198.692V111.46199999999999H101.769z"/><path fill-opacity=".316" fill="#4B82D4" d="M0 87.231H96.923V111.46199999999999H0z"/><path fill-opacity=".316" fill="#4B82D4" d="M305.308 58.154H402.231V82.385H305.308z"/><path fill-opacity=".316" fill="#4B82D4" d="M203.538 58.154H300.461V82.385H203.538z"/><path fill-opacity=".316" fill="#4B82D4" d="M101.769 58.154H198.692V82.385H101.769z"/><path fill-opacity=".316" fill="#4B82D4" d="M0 58.154H96.923V82.385H0z"/><path fill-opacity=".316" fill="#4B82D4" d="M305.308 29.077H402.231V53.30800000000001H305.308z"/><path fill-opacity=".316" fill="#4B82D4" d="M203.538 29.077H300.461V53.30800000000001H203.538z"/><path fill="#102542" d="M101.769 29.077H198.692V53.30800000000001H101.769z"/><path fill-opacity=".316" fill="#4B82D4" d="M0 29.077H96.923V53.30800000000001H0z"/><path fill-opacity=".6" fill="#4B82D4" d="M305.308 0H402.231V24.231H305.308z"/><path fill-opacity=".6" fill="#4B82D4" d="M203.538 0H300.461V24.231H203.538z"/><path fill-opacity=".6" fill="#4B82D4" d="M101.769 0H198.692V24.231H101.769z"/><path fill-opacity=".6" fill="#4B82D4" d="M0 0H96.923V24.231H0z"/><path fill-opacity=".6" fill="#4B82D4" d="M4.846 7.754H92.077V16.477H4.846z"/><path fill-opacity=".6" fill="#4B82D4" d="M106.615 7.754H193.846V16.477H106.615z"/><path fill-opacity=".6" fill="#4B82D4" d="M208.385 7.754H295.616V16.477H208.385z"/><path fill-opacity=".6" fill="#4B82D4" d="M310.154 7.754H397.385V16.477H310.154z"/><rect fill-opacity=".316" fill="#4B82D4" x="4.846" y="182.215" width="58.154" height="8.723" rx="4.362"/><rect fill-opacity=".316" fill="#4B82D4" x="106.615" y="182.215" width="19.385" height="8.723" rx="4.362"/><rect fill-opacity=".316" fill="#4B82D4" x="208.385" y="182.215" width="48.462" height="8.723" rx="4.362"/><rect fill-opacity=".316" fill="#4B82D4" x="310.154" y="182.215" width="19.385" height="8.723" rx="4.362"/><rect fill-opacity=".316" fill="#4B82D4" x="4.846" y="65.908" width="77.538" height="8.723" rx="4.362"/><rect fill-opacity=".316" fill="#4B82D4" x="106.615" y="65.908" width="19.385" height="8.723" rx="4.362"/><rect fill-opacity=".316" fill="#4B82D4" x="208.385" y="65.908" width="29.077" height="8.723" rx="4.362"/><rect fill-opacity=".316" fill="#4B82D4" x="310.154" y="65.908" width="38.769" height="8.723" rx="4.362"/><rect fill-opacity=".316" fill="#4B82D4" x="4.846" y="269.446" width="77.538" height="8.723" rx="4.362"/><rect fill-opacity=".316" fill="#4B82D4" x="106.615" y="269.446" width="58.154" height="8.723" rx="4.362"/><rect fill-opacity=".316" fill="#4B82D4" x="208.385" y="269.446" width="19.385" height="8.723" rx="4.362"/><rect fill-opacity=".316" fill="#4B82D4" x="310.154" y="269.446" width="77.538" height="8.723" rx="4.362"/><rect fill-opacity=".316" fill="#4B82D4" x="4.846" y="211.292" width="19.385" height="8.723" rx="4.362"/><rect fill-opacity=".316" fill="#4B82D4" x="106.615" y="211.292" width="58.154" height="8.723" rx="4.362"/><rect fill-opacity=".316" fill="#4B82D4" x="208.385" y="211.292" width="77.538" height="8.723" rx="4.362"/><rect fill="#FF7576" x="310.154" y="211.292" width="67.846" height="8.723" rx="4.362"/><rect fill-opacity=".316" fill="#4B82D4" x="4.846" y="153.138" width="58.154" height="8.723" rx="4.362"/><rect fill-opacity=".316" fill="#4B82D4" x="106.615" y="153.138" width="9.692" height="8.723" rx="4.362"/><rect fill="#FF7576" x="208.385" y="153.138" width="58.154" height="8.723" rx="4.362"/><rect fill-opacity=".316" fill="#4B82D4" x="310.154" y="153.138" width="58.154" height="8.723" rx="4.362"/><rect fill-opacity=".316" fill="#4B82D4" x="4.846" y="36.831" width="38.769" height="8.723" rx="4.362"/><rect fill-opacity=".316" fill="#4B82D4" x="106.615" y="36.831" width="38.769" height="8.723" rx="4.362"/><rect fill-opacity=".316" fill="#4B82D4" x="208.385" y="36.831" width="38.769" height="8.723" rx="4.362"/><rect fill-opacity=".316" fill="#4B82D4" x="310.154" y="36.831" width="38.769" height="8.723" rx="4.362"/><rect fill-opacity=".316" fill="#4B82D4" x="4.846" y="124.062" width="38.769" height="8.723" rx="4.362"/><rect fill-opacity=".316" fill="#4B82D4" x="106.615" y="124.062" width="38.769" height="8.723" rx="4.362"/><rect fill-opacity=".316" fill="#4B82D4" x="208.385" y="124.062" width="38.769" height="8.723" rx="4.362"/><rect fill-opacity=".316" fill="#4B82D4" x="310.154" y="124.062" width="38.769" height="8.723" rx="4.362"/><rect fill-opacity=".316" fill="#4B82D4" x="4.846" y="240.369" width="29.077" height="8.723" rx="4.362"/><rect fill-opacity=".316" fill="#4B82D4" x="106.615" y="240.369" width="77.538" height="8.723" rx="4.362"/><rect fill-opacity=".316" fill="#4B82D4" x="208.385" y="240.369" width="38.769" height="8.723" rx="4.362"/><rect fill-opacity=".316" fill="#4B82D4" x="310.154" y="240.369" width="38.769" height="8.723" rx="4.362"/><rect fill-opacity=".316" fill="#4B82D4" x="4.846" y="94.985" width="67.846" height="8.723" rx="4.362"/><rect fill-opacity=".316" fill="#4B82D4" x="106.615" y="94.985" width="87.231" height="8.723" rx="4.362"/><rect fill-opacity=".316" fill="#4B82D4" x="208.385" y="94.985" width="58.154" height="8.723" rx="4.362"/><rect fill-opacity=".316" fill="#4B82D4" x="310.154" y="94.985" width="67.846" height="8.723" rx="4.362"/><path d="M180.793 36.783c-.777-.776-2.098-1.241-3.535-1.241-1.438 0-2.759.465-3.536 1.241a.822.822 0 1 1-1.165-1.165c1.652-1.652 1.652-5.42 0-7.073a.822.822 0 0 1 0-1.165.822.822 0 0 1 1.165 0c.777.778 2.098 1.242 3.536 1.242 1.437 0 2.758-.465 3.535-1.242a.822.822 0 1 1 1.165 1.165c-1.626 1.625-1.652 5.299-.08 6.991a.823.823 0 0 1-.486 1.489h-.017a.821.821 0 0 1-.582-.242zm-.494 22.944a.659.659 0 0 1-.391 1.189h-.013a.661.661 0 0 1-.467-.192c-.472-.473-1.284-.756-2.169-.756s-1.696.283-2.17.756a.659.659 0 1 1-.93-.932c1.013-1.014 1.013-3.327 0-4.341a.659.659 0 0 1 .93-.933c.474.474 1.285.757 2.17.757s1.696-.283 2.17-.757a.659.659 0 1 1 .93.933c-.992.993-1.012 3.232-.06 4.276zm-25.53-25.539a.659.659 0 0 1-.391 1.189h-.014a.664.664 0 0 1-.467-.192c-.473-.474-1.284-.756-2.17-.756-.885 0-1.695.282-2.169.756a.659.659 0 1 1-.931-.932c1.014-1.015 1.014-3.327 0-4.341a.659.659 0 0 1 .932-.933c.473.474 1.284.756 2.17.756.885 0 1.695-.282 2.169-.756a.659.659 0 1 1 .931.933c-.993.993-1.013 3.232-.06 4.276zm.323 11.487l8.577 8.58-22.066 22.073a.821.821 0 0 1-1.165 0l-7.412-7.415a.823.823 0 0 1 0-1.165l22.066-22.073zm16.16-.17a.823.823 0 0 1 0 1.165l-6.419 6.42-8.576-8.58 6.418-6.42a.822.822 0 0 1 1.164 0l7.412 7.415z" fill="#FF7576" fill-rule="nonzero"/><g transform="translate(407.077)"><g transform="translate(0 1.938)"><mask id="d" fill="#fff"><use xlink:href="#c"/></mask><path d="M202.583 145.718c-2.385 0-4.646.464-6.814 1.13l-34.01-59.28c2.01-3.47 3.252-7.446 3.252-11.75 0-12.981-10.527-23.536-23.475-23.536-7.103 0-13.396 3.246-17.71 8.259L70.144 39.4c.166-1.122.347-2.245.347-3.411 0-12.982-10.528-23.537-23.475-23.537-12.948 0-23.475 10.562-23.475 23.537 0 .89.166 1.731.26 2.593l-45.49 6.419c-3.939-7.47-11.677-12.634-20.68-12.634-12.947 0-23.475 10.562-23.475 23.536 0 4.448 1.308 8.563 3.454 12.113l-37.882 39.017c-2.19-.681-4.465-1.152-6.871-1.152-12.948 0-23.475 10.562-23.475 23.537 0 12.974 10.534 23.536 23.475 23.536 4.291 0 8.265-1.246 11.726-3.267l61.061 37.054c-.086.797-.245 1.587-.245 2.413 0 12.981 10.534 23.536 23.475 23.536 6.64 0 12.622-2.81 16.892-7.273l89.609 76.354c-.824 2.398-1.366 4.933-1.366 7.606 0 12.982 10.527 23.537 23.475 23.537 12.948 0 23.475-10.555 23.475-23.537 0-1.441-.173-2.84-.426-4.209l59.666-92.631c.795.08 1.568.239 2.385.239 12.947 0 23.475-10.555 23.475-23.53 0-12.967-10.528-23.529-23.475-23.529zM2.63 138.88c10.086-1.319 18.186-8.998 20.02-18.944l36.886 6.99c-.094.834-.253 1.645-.253 2.493 0 5.049 1.633 9.714 4.35 13.554l-52.319 39.69a23.498 23.498 0 0 0-14.392-15.516L2.63 138.88zm44.377-79.346c1.966 0 3.851-.312 5.672-.776l17.753 50.724c-3.981 2.485-7.175 6.086-9.104 10.418l-38.562-7.31a23.342 23.342 0 0 0-7.615-14.43l25.448-39.626c2.059.587 4.176 1 6.408 1zM12.145 191.118l56.596-42.937c3.923 2.956 8.743 4.774 14.017 4.774 3.707 0 7.168-.942 10.289-2.485l19.747 36.323c-4.184 3.513-7.139 8.396-8.1 14.025l-92.621-8.99c.029-.247.058-.478.072-.71zm166.963-21.863c0 1.144.173 2.253.34 3.36L147.51 192.11c-4.176-6.52-11.437-10.88-19.725-10.88-3.121 0-6.09.644-8.815 1.752L99.03 146.32c4.429-4.28 7.21-10.265 7.21-16.9 0-4.637-1.387-8.933-3.706-12.576L127.85 94.87c3.859 2.796 8.57 4.491 13.685 4.491 5.874 0 11.177-2.245 15.296-5.831l32.376 56.425c-6.09 4.26-10.1 11.308-10.1 19.299zm-56.394-79.499l-24.992 21.682c-4.068-3.412-9.241-5.549-14.957-5.549-1.958 0-3.836.312-5.657.768L59.355 55.926a23.52 23.52 0 0 0 8.642-9.584l51.885 20.429a23.472 23.472 0 0 0-1.821 9.055c-.007 5.223 1.756 10.019 4.653 13.93zm-88.77-34.221L9.118 94.175c-2.92-1.304-6.12-2.064-9.516-2.064-3.446 0-6.69.79-9.638 2.13L-25.65 72.37c4.162-4.253 6.748-10.063 6.748-16.467 0-1.347-.18-2.644-.397-3.926l44.948-6.339c1.814 4.02 4.682 7.462 8.295 9.896zm-91.653 18.052c4.126 3.6 9.45 5.86 15.34 5.86 3.944 0 7.615-1.071 10.88-2.81l15.427 21.617c-4.747 4.303-7.79 10.453-7.804 17.357l-60.23 9.642c-1.098-6.1-4.537-11.352-9.356-14.85l35.743-36.816zm-26.286 58.983l61.336-9.816c2.594 8.15 9.415 14.387 17.933 15.995l-5.44 26.992c-.326-.014-.636-.101-.969-.101-9.48 0-17.615 5.686-21.321 13.807l-57.073-34.634a23.266 23.266 0 0 0 5.534-12.243zm94.168 66.35l94.47 9.178c1.41 9.925 8.945 17.879 18.7 19.755l-8.808 38.3c-6.402.812-11.965 4.173-15.693 9.085L9.89 199.434c.087-.174.195-.34.282-.514zm111.746 67.386l8.808-38.3c11.553-1.471 20.534-11.273 20.534-23.233 0-2.065-.354-4.035-.852-5.94l31.263-19.103c2.4 4.781 6.315 8.635 11.178 10.88l-55.555 86.258c-3.418-5.39-8.91-9.316-15.376-10.562z" fill-opacity=".1" fill="#FF7576" fill-rule="nonzero" mask="url(#d)" transform="scale(-1 1) rotate(60 0 80.032)"/><path stroke="#FF7576" stroke-width="2.908" d="M1.454 -0.485H95.469V282.53H1.454z"/></g><g transform="translate(1.938)"><path fill="#FF7576" d="M0 0H92.077V24.231H0z"/><path d="M9.79 7.778v9.582H7.767v-.207a.892.892 0 0 1 0-.12v-.427h.003V5.074c.668 0 1.295-.01 1.92.01.116.004.239.122.338.21l1.953 1.74c-.12.36-.183.735-.183 1.11 0 .729.23 1.456.705 2.054L9.79 7.778zm7.727 4.172c.613.581.967 1.29 1.024 2.136.107 1.584-.852 2.992-2.32 3.42-.312.091-.627.135-.937.137h-.066a3.404 3.404 0 0 1-.936-.136c-1.469-.429-2.428-1.837-2.321-3.421.057-.845.411-1.555 1.024-2.136.212-.201.429-.4.663-.616.477.432.973.856 1.474 1.308l.067.06c-.307.275-.605.525-.874.802-.479.494-.438 1.302.066 1.778.246.233.558.35.87.353.312-.003.624-.12.87-.353.504-.476.545-1.284.066-1.778-.269-.277-.732-.82-1.04-1.094l.002-.001c-.807-.724-1.592-1.375-2.295-2.101-1.228-1.267-1.124-3.338.167-4.558a3.284 3.284 0 0 1 2.23-.904c.8.008 1.6.308 2.23.904 1.291 1.22 1.395 3.29.167 4.558a18.27 18.27 0 0 1-.759.734l-1.517-1.43c.286-.253.564-.489.815-.748.479-.494.438-1.302-.066-1.778a1.281 1.281 0 0 0-.87-.353c-.312.003-.624.12-.87.353-.504.476-.545 1.284-.066 1.778.191.197 3.094 2.983 3.202 3.086zm5.216 5.41h-2.021V7.779l-2.713 2.42a3.294 3.294 0 0 0 .705-2.054c0-.376-.062-.751-.183-1.112.65-.58 1.301-1.16 1.953-1.739.1-.088.222-.206.338-.21.625-.02 1.252-.01 1.92-.01v11.898c.002.064.008.13 0 .19v.198z" fill="#FFF"/><text font-family="Overpass-Black, Overpass" font-size="9.376" font-weight="700" fill="#FFF"><tspan x="28.575" y="14.367">MACHINATE</tspan></text></g><g transform="translate(14.538 124.062)"><g transform="translate(0 22.292)"><rect stroke="#FF7576" stroke-width=".969" fill="#FFF" x=".485" y=".485" width="66.877" height="15.508" rx="1.938"/><text font-family="Overpass-Bold, Overpass" font-size="6.785" font-weight="bold" fill="#FF7576"><tspan x="11.631" y="10.877">BUILD MODEL</tspan></text></g><rect stroke="#FF7576" stroke-width=".969" fill="#FFF" x=".485" y=".485" width="66.877" height="15.508" rx="1.938"/><text font-family="Overpass-Bold, Overpass" font-size="6.785" font-weight="bold" fill="#FF7576"><tspan x="14.538" y="10.877">RUN MODEL</tspan></text></g></g></g></g></svg>