<svg width="327" height="267" viewBox="0 0 327 267" xmlns="http://www.w3.org/2000/svg"><title>make predictions illustration</title><g fill="none" fill-rule="evenodd"><path d="M282 23h-96v221h99m-3-151h-96m102.501 71H186" stroke="#FF7576" stroke-width="5" stroke-dasharray="5,5,5,5"/><path stroke="#FFF" stroke-width="7" d="M283.5 3.5H321.5V41.5H283.5z"/><rect stroke="#FFF" stroke-width="7" x="285.5" y="225.5" width="38" height="38" rx="13"/><circle stroke="#FFF" stroke-width="7" cx="302.5" cy="92.5" r="19"/><path d="M302.5 145.326l-17.284 12.558 6.602 20.319h21.364l6.602-20.319-17.284-12.558z" stroke="#FFF" stroke-width="7"/><path d="M186.257 133H116" stroke="#FF7576" stroke-width="5" stroke-dasharray="5,5,5,5"/><g transform="translate(0 82)"><path fill="#102542" d="M10 8H115V96H10z"/><path d="M16.243 23.587L38 42.886c-3.801-4.769-5.657-10.572-5.655-16.377 0-2.994.5-5.992 1.47-8.864-5.22-4.625-10.44-9.25-15.665-13.868-.797-.703-1.785-1.645-2.711-1.676-5.017-.165-10.043-.078-15.405-.078v91.962H.017v3.4a7.07 7.07 0 0 0 0 .961v1.651H7.74c2.769.007 5.583 0 8.503 0v-76.41z" fill="#FF7576"/><path d="M77.707 56.62c-.867-.817-24.19-23.024-25.723-24.593-3.85-3.941-3.524-10.382.523-14.177a10.34 10.34 0 0 1 6.993-2.81c2.51.023 5.016.958 6.993 2.81 4.047 3.795 4.374 10.236.523 14.177-2.014 2.063-4.243 3.939-6.541 5.96l12.188 11.395c2.096-1.911 4.138-3.844 6.098-5.85 9.866-10.1 9.028-26.606-1.343-36.329A26.494 26.494 0 0 0 59.5 0a26.495 26.495 0 0 0-17.918 7.203c-10.371 9.723-11.21 26.229-1.343 36.328 5.655 5.79 11.956 10.98 18.441 16.746l-.013.012c2.469 2.187 6.194 6.508 8.35 8.714 3.85 3.941 3.523 10.382-.525 14.177a10.338 10.338 0 0 1-6.992 2.81 10.34 10.34 0 0 1-6.993-2.81c-4.047-3.795-4.374-10.236-.524-14.177 2.156-2.206 4.554-4.196 7.022-6.383l-.538-.48c-4.031-3.609-8.015-6.99-11.848-10.432-1.881 1.728-3.622 3.308-5.326 4.911-4.922 4.634-7.768 10.288-8.228 17.024-.86 12.625 6.852 23.852 18.647 27.266a27.553 27.553 0 0 0 7.525 1.088c.088.001.175.003.263.003.088 0 .175-.002.263-.003a27.553 27.553 0 0 0 7.525-1.088c11.795-3.414 19.507-14.641 18.647-27.266-.46-6.736-3.306-12.39-8.228-17.024" fill="#FF7576"/><path d="M118.972 99.998v-1.572c.059-.491.008-1.014 0-1.522v-2.92h-.003V2.023c-5.362 0-10.388-.087-15.406.078-.926.03-1.914.973-2.71 1.676a15634.2 15634.2 0 0 0-15.667 13.868c.97 2.872 1.47 5.87 1.47 8.864.001 5.805-1.854 11.609-5.656 16.377l21.759-19.299v76.41c2.92 0 5.735.007 8.504 0h7.71z" fill="#FF7576"/></g></g></svg>