<svg xmlns="http://www.w3.org/2000/svg" width="50" height="43" viewBox="0 0 50 43"><g fill="#FFF" fill-rule="evenodd"><path d="M6.741 9.683l8.979 7.991c-1.569-1.974-2.335-4.377-2.334-6.781 0-1.24.206-2.481.607-3.67A6174.76 6174.76 0 0 0 7.528 1.48C7.2 1.19 6.791.8 6.41.786 4.34.718 2.265.754.052.754V38.832H.045v1.408c-.006.135-.012.27 0 .399v.683h3.187c1.143.003 2.304 0 3.51 0V9.683z"/><path d="M32.318 23.458c-.357-.338-9.967-9.539-10.598-10.189-1.587-1.633-1.452-4.302.215-5.874a4.247 4.247 0 0 1 2.881-1.164 4.247 4.247 0 0 1 2.881 1.164c1.668 1.572 1.803 4.241.216 5.874-.83.855-1.748 1.632-2.695 2.47l5.022 4.72a60.412 60.412 0 0 0 2.512-2.424c4.065-4.184 3.72-11.022-.553-15.05A10.884 10.884 0 0 0 24.816 0a10.884 10.884 0 0 0-7.382 2.984c-4.273 4.029-4.618 10.867-.553 15.051 2.33 2.399 4.926 4.55 7.598 6.938l-.006.005c1.017.906 2.552 2.696 3.44 3.61 1.587 1.633 1.452 4.302-.216 5.874a4.247 4.247 0 0 1-2.88 1.164 4.247 4.247 0 0 1-2.882-1.164c-1.667-1.572-1.802-4.24-.216-5.874.889-.914 1.876-1.738 2.893-2.644l-.221-.2c-1.661-1.494-3.303-2.895-4.882-4.321-.775.716-1.492 1.37-2.194 2.035-2.028 1.92-3.2 4.262-3.39 7.053-.355 5.23 2.823 9.881 7.683 11.296 1.03.3 2.073.445 3.1.45l.108.002.109-.001c1.027-.006 2.07-.151 3.1-.451 4.86-1.415 8.037-6.066 7.683-11.296-.19-2.79-1.362-5.134-3.39-7.053"/><path d="M49.582 41.322v-.65c.024-.204.003-.42 0-.63v-1.21h-.001V.754c-2.213 0-4.287-.036-6.357.032-.383.013-.79.403-1.12.694a6458.2 6458.2 0 0 0-6.464 5.743c.4 1.189.607 2.43.607 3.67 0 2.404-.765 4.807-2.334 6.781l8.979-7.99v31.638c1.205 0 2.366.003 3.509 0h3.18z"/></g></svg>