<svg width="153" height="25" viewBox="0 0 153 25" xmlns="http://www.w3.org/2000/svg"><title>logo-2</title><g fill="#FF7576"><path d="M3.91 5.63v18.394c-.699 0-1.373.002-2.035 0H.026v-.397a1.712 1.712 0 0 1 0-.232v-.818H.03V.439c1.284 0 2.487-.022 3.687.018.222.008.459.234.65.404 1.25 1.111 2.5 2.225 3.749 3.338a6.71 6.71 0 0 0-.352 2.134c0 1.398.444 2.795 1.353 3.943L3.91 5.63zm14.834 8.008c1.177 1.116 1.857 2.478 1.967 4.1.205 3.042-1.638 5.746-4.456 6.568-.585.17-1.19.259-1.799.262l-.062.001h-.063a6.536 6.536 0 0 1-1.798-.263c-2.82-.822-4.662-3.526-4.456-6.567.11-1.623.79-2.985 1.966-4.1.407-.387.823-.768 1.272-1.184.916.83 1.868 1.644 2.832 2.513l.128.116c-.59.526-1.163 1.006-1.678 1.537-.92.95-.842 2.5.126 3.415a2.46 2.46 0 0 0 1.67.677 2.46 2.46 0 0 0 1.671-.677c.968-.914 1.046-2.466.126-3.415-.515-.531-1.406-1.572-1.995-2.099l.003-.003c-1.55-1.388-3.056-2.639-4.407-4.033-2.358-2.433-2.158-6.409.32-8.751A6.305 6.305 0 0 1 14.395 0a6.304 6.304 0 0 1 4.281 1.735c2.479 2.342 2.679 6.318.321 8.75-.468.484-.956.95-1.457 1.41L14.626 9.15c.55-.487 1.082-.939 1.564-1.435.92-.95.842-2.501-.125-3.415a2.46 2.46 0 0 0-1.671-.677 2.46 2.46 0 0 0-1.671.677c-.968.914-1.046 2.465-.126 3.415.367.378 5.94 5.727 6.147 5.923zm10.013 10.387h-3.88V5.63l-5.207 4.646a6.325 6.325 0 0 0 1.353-3.943c0-.72-.12-1.442-.352-2.134l3.75-3.338c.19-.17.427-.396.649-.404 1.2-.04 2.403-.019 3.687-.019V23.28c.002.122.014.248 0 .366v.379zm30.788-11.66c-.05.12-.102.237-.159.353l-3.06 6.498-3.096-6.462a5.598 5.598 0 0 1-.144-.396V19H50.35V6.4h2.79l2.934 6.426c.084.192.186.456.306.792.12-.336.222-.6.306-.792L59.71 6.4h2.556V19H59.53v-6.246c0-.12.006-.252.018-.396l-.003.007zM73.462 19l-.936-2.448h-4.734L66.856 19h-2.988l4.968-12.6h2.628L76.45 19h-2.988zm-1.854-4.968l-1.08-2.718a9.803 9.803 0 0 1-.378-1.062c-.048.204-.174.558-.378 1.062l-1.08 2.718h2.916zm10.728 5.148c-.948 0-1.779-.189-2.493-.567-.714-.378-1.269-.885-1.665-1.521a7.225 7.225 0 0 1-.873-2.052 9.473 9.473 0 0 1-.279-2.34c0-.756.096-1.497.288-2.223.193-.729.49-1.426.882-2.07.396-.654.951-1.182 1.665-1.584.714-.402 1.539-.603 2.475-.603 1.14 0 2.112.294 2.916.882.804.588 1.374 1.302 1.71 2.142l-2.448 1.098c-.348-.516-.681-.894-.999-1.134-.318-.24-.711-.36-1.179-.36-.444 0-.834.117-1.17.351a2.28 2.28 0 0 0-.774.936c-.18.39-.312.798-.396 1.224a6.92 6.92 0 0 0-.126 1.341c0 .636.081 1.236.243 1.8.162.564.438 1.047.828 1.449.39.402.855.603 1.395.603.78 0 1.494-.54 2.142-1.62l2.502.936c-1.02 2.208-2.568 3.312-4.644 3.312zm14.31-.18v-5.166h-5.004V19h-2.736V6.4h2.736v4.824h5.004V6.4H99.4V19h-2.754zm5.526 0V6.4h2.736V19h-2.736zm15.84 0h-2.394l-4.752-6.678c-.12-.156-.3-.474-.54-.954.036.204.054.522.054.954V19h-2.7V6.4h2.502l4.626 6.606c.228.324.402.636.522.936a6.948 6.948 0 0 1-.054-.954V6.4h2.736V19zm11.178 0l-.936-2.448h-4.734L122.584 19h-2.988l4.968-12.6h2.628l4.986 12.6h-2.988zm-1.854-4.968l-1.08-2.718a9.803 9.803 0 0 1-.378-1.062c-.048.204-.174.558-.378 1.062l-1.08 2.718h2.916zm10.17-5.004V19h-2.736V9.028h-3.618V6.4h9.972v2.628h-3.618zm5.49 9.972V6.4h9.054v2.592h-6.318v2.214h3.528v2.592h-3.528v2.592h6.678V19h-9.414z"/></g></svg>