<svg width="1440" height="1542" viewBox="0 0 1440 1542" xmlns="http://www.w3.org/2000/svg"><title>bg pattern</title><path d="M1519.767 680.59c-12.313 0-23.993 2.389-35.187 5.822L1308.944 381c10.373-17.878 16.791-38.368 16.791-60.538 0-66.882-54.366-121.261-121.233-121.261-36.68 0-69.18 16.72-91.456 42.548L835.804 132.84c.858-5.785 1.79-11.57 1.79-17.58C837.595 48.38 783.229-6 716.363-6c-66.867 0-121.233 54.417-121.233 121.262 0 4.59.858 8.92 1.343 13.361l-234.928 33.068c-20.336-38.48-60.3-65.09-106.792-65.09-66.867 0-121.233 54.416-121.233 121.261 0 22.916 6.754 44.116 17.836 62.404l-195.637 201.02c-11.306-3.508-23.06-5.934-35.485-5.934-66.867 0-121.233 54.417-121.233 121.262s54.404 121.261 121.233 121.261c22.164 0 42.687-6.419 60.56-16.832l315.34 190.906c-.448 4.105-1.269 8.174-1.269 12.428 0 66.883 54.404 121.262 121.233 121.262 34.292 0 65.187-14.481 87.24-37.472l462.767 393.382c-4.254 12.354-7.053 25.417-7.053 39.19 0 66.882 54.367 121.261 121.233 121.261 66.867 0 121.233-54.38 121.233-121.262 0-7.427-.895-14.63-2.201-21.684l308.138-477.247c4.104.41 8.097 1.232 12.313 1.232 66.867 0 121.233-54.38 121.233-121.225 0-66.807-54.366-121.224-121.233-121.224zM487.143 645.357c52.09-6.792 93.919-46.355 103.396-97.599l190.488 36.017c-.485 4.292-1.306 8.472-1.306 12.839 0 26.014 8.433 50.05 22.463 69.83l-270.19 204.492c-10.746-37.061-38.396-66.658-74.33-79.945l29.479-145.634zm229.182-408.796c10.149 0 19.888-1.605 29.291-3.994l91.68 261.334c-20.56 12.802-37.052 31.352-47.015 53.67l-199.145-37.658c-3.88-29.485-18.134-55.462-39.328-74.347l131.42-204.156c10.634 3.023 21.567 5.15 33.097 5.15zm-180.04 677.93l292.28-221.211c20.261 15.227 45.15 24.595 72.389 24.595 19.142 0 37.015-4.851 53.135-12.801l101.979 187.136c-21.605 18.102-36.867 43.257-41.83 72.257L535.913 918.15c.15-1.27.298-2.464.373-3.658zm862.25-112.64c0 5.898.895 11.608 1.753 17.319l-164.927 100.435c-21.568-33.59-59.068-56.059-101.867-56.059-16.12 0-31.456 3.322-45.523 9.032l-102.986-188.89c22.873-22.058 37.239-52.887 37.239-87.074 0-23.887-7.164-46.02-19.142-64.793l130.748-113.2c19.925 14.407 44.254 23.14 70.672 23.14 30.336 0 57.725-11.57 78.994-30.044l167.203 290.707c-31.455 21.946-52.165 58.26-52.165 99.428zm-291.236-409.58L978.231 503.98c-21.008-17.58-47.725-28.59-77.24-28.59-10.112 0-19.814 1.605-29.217 3.957l-91.68-261.372c19.18-11.943 34.59-29.037 44.627-49.378l267.951 105.25c-6.007 14.37-9.403 30.12-9.403 46.654-.037 26.91 9.068 51.617 24.03 71.771zM648.861 215.96l-128.21 199.08c-15.075-6.719-31.605-10.638-49.143-10.638-17.799 0-34.552 4.069-49.777 10.973l-80.635-112.677c21.493-21.909 34.851-51.842 34.851-84.835 0-6.942-.933-13.623-2.052-20.229l232.13-32.657c9.366 20.714 24.18 38.442 42.836 50.983zm-473.327 93.008c21.307 18.55 48.807 30.194 79.218 30.194 20.373 0 39.329-5.524 56.195-14.481l79.665 111.371c-24.516 22.17-40.225 53.857-40.3 89.426L39.265 575.153c-5.672-31.426-23.433-58.485-48.321-76.512l184.591-189.674zM39.787 612.849l316.757-50.572c13.396 41.988 48.62 74.123 92.613 82.409L421.06 783.75c-1.68-.074-3.284-.522-5-.522-48.956 0-90.972 29.298-110.114 71.137L11.204 675.925c15.224-17.467 25.374-39.077 28.583-63.076zm486.311 341.84l487.88 47.288c7.276 51.132 46.194 92.112 96.568 101.779l-45.486 197.325c-33.06 4.18-61.792 21.498-81.046 46.803L524.644 957.34c.447-.896 1.007-1.755 1.454-2.65zm577.097 347.176l45.486-197.325c59.664-7.577 106.046-58.075 106.046-119.695 0-10.637-1.829-20.788-4.403-30.604l161.457-98.42c12.388 24.633 32.612 44.488 57.724 56.058L1182.6 1356.282c-17.65-27.768-46.008-47.997-79.404-54.417z" fill="#102542" fill-opacity=".05"/></svg>